<svg width="18" height="22" viewBox="0 0 18 22" fill="none" xmlns="http://www.w3.org/2000/svg">
<path d="M14.7941 11.1675C14.7626 9.45242 15.5466 8.11974 17.1423 7.16175C16.244 5.92563 14.9163 5.23031 13.1591 5.0758C12.5366 5.02172 11.7368 5.16078 10.7676 5.49685C9.72355 5.86382 9.1365 6.04538 9.00648 6.04538C8.73069 6.04538 8.20277 5.89086 7.41874 5.58184C6.63471 5.27281 5.96887 5.11829 5.41729 5.11829C4.48748 5.13374 3.62466 5.37324 2.82881 5.84451C2.02902 6.31578 1.39471 6.95701 0.914047 7.77208C0.303371 8.78415 0 9.99323 0 11.3954C0 12.6586 0.22458 13.9218 0.673722 15.1888C1.09529 16.3979 1.63109 17.4563 2.28511 18.3679C2.86426 19.1984 3.37644 19.801 3.80982 20.1796C4.43626 20.7706 5.07059 21.0487 5.72461 21.0217C6.14617 21.0063 6.69773 20.8595 7.37932 20.5775C8.01758 20.3109 8.65585 20.1796 9.29411 20.1796C9.88902 20.1796 10.5036 20.3109 11.1458 20.5775C11.855 20.8595 12.4381 20.9985 12.8872 20.9985C13.5531 20.9715 14.1795 20.6972 14.7587 20.1796C14.9596 20.0096 15.1842 19.7779 15.4206 19.4843C15.6609 19.1868 15.9249 18.8392 16.2164 18.4297C16.4174 18.1361 16.6183 17.8194 16.8153 17.4833C17.0123 17.1473 17.1896 16.788 17.3472 16.4094C17.4181 16.2549 17.485 16.0966 17.5441 15.9343C17.6032 15.7721 17.6584 15.6098 17.7175 15.4399C17.1817 15.2158 16.6931 14.8991 16.2598 14.4896C15.2945 13.6011 14.8099 12.4886 14.7941 11.1675Z" fill="white"/>
<path d="M12.0521 3.37228C12.8204 2.46064 13.2065 1.47561 13.2065 0.421052C13.2065 0.351521 13.2065 0.281989 13.2065 0.212457C13.2065 0.142926 13.1986 0.0733944 13.1828 0C12.647 0.02704 12.0757 0.18928 11.4729 0.482858C10.8701 0.776436 10.3737 1.15113 9.98366 1.59923C9.19963 2.48382 8.80957 3.43409 8.80957 4.44616C8.80957 4.51569 8.80957 4.58136 8.80957 4.64702C8.80957 4.71269 8.81747 4.77836 8.82929 4.84789C10.0349 4.95992 11.1105 4.46933 12.0521 3.37228Z" fill="white"/>
</svg>
