<svg width="41" height="41" viewBox="0 0 41 41" fill="none" xmlns="http://www.w3.org/2000/svg">
<rect x="0.0698242" y="0.774414" width="40" height="40" rx="20" fill="#55BB96"/>
<path d="M28.5775 19.096C28.1574 18.4486 27.7778 17.7759 27.4407 17.0818C27.2986 16.7933 27.1665 16.5269 27.0393 16.2739C26.4056 15.01 25.9871 14.1752 25.7207 12.6193L25.5075 11.3837C25.2881 10.0993 24.6214 8.93386 23.6254 8.09361C22.6294 7.25337 21.3684 6.79248 20.0653 6.79248C18.7622 6.79248 17.5011 7.25337 16.5052 8.09361C15.5092 8.93386 14.8425 10.0993 14.623 11.3837L14.4163 12.6036C13.9602 15.2693 13.0358 16.8288 11.5673 19.0796C10.5919 20.5829 10.0318 22.3176 9.94386 24.1075C9.85596 25.8973 10.2434 27.6786 11.0668 29.2702C11.8903 30.8619 13.1203 32.2072 14.632 33.1695C16.1437 34.1318 17.8833 34.6768 19.6738 34.7492C19.8038 34.7541 19.9353 34.7563 20.0667 34.7563C21.8912 34.756 23.6819 34.2636 25.25 33.3309C26.8181 32.3982 28.1057 31.0598 28.9769 29.4567C29.8481 27.8536 30.2708 26.0452 30.2004 24.2221C30.1299 22.3989 29.569 20.6285 28.5768 19.0974L28.5775 19.096ZM24.2855 24.6107C24.2859 25.4452 24.0389 26.261 23.5755 26.9551C23.1122 27.6491 22.4535 28.1902 21.6826 28.5099C20.9118 28.8295 20.0635 28.9133 19.245 28.7508C18.4265 28.5883 17.6745 28.1866 17.0843 27.5967C16.4941 27.0068 16.0921 26.2551 15.9291 25.4366C15.7662 24.6182 15.8496 23.7698 16.1688 22.9988C16.4881 22.2278 17.0288 21.5688 17.7226 21.1051C18.4165 20.6415 19.2322 20.394 20.0667 20.394C21.1848 20.3953 22.2568 20.8399 23.0476 21.6304C23.8385 22.4208 24.2836 23.4925 24.2855 24.6107Z" fill="white"/>
</svg>
