<svg width="40" height="41" viewBox="0 0 40 41" fill="none" xmlns="http://www.w3.org/2000/svg">
<rect x="0.67041" y="0.251465" width="38.75" height="40" rx="19.375" fill="#FFAE68"/>
<path d="M9.26784 27.8355L8.51534 26.9697C8.12343 26.5198 7.96326 25.8826 8.08576 25.266C8.20297 24.6769 8.55368 24.2029 9.04784 23.9671L11.9178 22.5946C13.9158 21.6386 15.5695 20.0079 16.7012 17.8767L17.562 16.2542C18.7608 13.9944 20.5195 12.2611 22.6495 11.244L26.5141 9.39678C27.1324 9.10408 27.8645 9.26452 28.3345 9.80575L29.7545 11.439L25.3878 13.5256C23.0662 14.6354 21.1503 16.5218 19.8462 18.9826L18.9328 20.7027C17.7649 22.9036 16.0578 24.5879 13.9953 25.5754L9.26784 27.8355ZM31.5745 13.5347L30.6828 12.509L25.9495 14.7726C23.8883 15.7583 22.1812 17.4414 21.012 19.641L20.0995 21.3644C18.7941 23.8253 16.877 25.7129 14.5537 26.8215L10.1995 28.9024L11.7591 30.696C12.072 31.0582 12.4662 31.2515 12.9412 31.2515C13.1573 31.2515 13.3749 31.2038 13.5799 31.1065L17.4445 29.2593C19.5749 28.2414 21.3337 26.508 22.532 24.2491L23.3928 22.6266C24.5224 20.4971 26.1762 18.8669 28.1762 17.9087L31.0462 16.5363C31.5403 16.3005 31.8912 15.8264 32.0083 15.2373C32.0912 14.584 31.9662 13.9824 31.5745 13.5347Z" fill="white"/>
</svg>
