<svg width="40" height="41" viewBox="0 0 40 41" fill="none" xmlns="http://www.w3.org/2000/svg">
<rect y="0.856689" width="40" height="40" rx="20" fill="#55BB96"/>
<path d="M20.5243 32.6538C18.1618 32.6538 13.7743 32.232 10.9056 29.3632C6.93997 25.3976 7.69935 18.3945 7.69935 18.1413C7.78372 17.7195 8.03685 17.4663 8.45872 17.382C8.79622 17.382 15.715 16.6226 19.6806 20.5882C23.6462 24.5538 22.8868 31.557 22.8868 31.8101C22.8025 32.232 22.5493 32.4851 22.1275 32.5695C22.0431 32.5695 21.4525 32.6538 20.5243 32.6538Z" fill="white"/>
<path d="M14.8715 16.2006C16.1371 15.1037 17.8246 14.5975 19.5121 14.8506C19.5121 14.5975 19.5121 14.26 19.5121 14.0068C19.5121 11.9818 20.5246 10.21 22.0434 9.11309C21.4527 9.02871 20.9465 8.94434 20.3559 8.94434C16.1371 8.94434 12.5934 11.8131 11.4121 15.6943C12.4246 15.6943 13.6059 15.8631 14.8715 16.2006Z" fill="white"/>
<path d="M33.0121 18.1411C32.9277 17.7193 32.6746 17.4661 32.2527 17.3818C31.9996 17.3818 25.5871 16.7068 21.5371 20.0818C25.2496 24.5536 24.659 31.2193 24.5746 31.9786C24.5746 32.063 24.5746 32.063 24.5746 32.1474C26.4309 31.7255 28.3715 30.8818 29.8902 29.363C33.7715 25.3974 33.0121 18.3943 33.0121 18.1411Z" fill="white"/>
<path d="M20.4398 18.8162C23.1398 16.4537 26.6836 15.7787 29.2992 15.61C28.5398 12.9943 26.6836 10.885 24.3211 9.78809C24.2367 9.78809 24.2367 9.87246 24.1523 9.87246C22.2961 10.5475 21.1992 12.1506 21.1992 14.0068C21.1992 14.5975 21.368 15.2725 21.6211 15.8631C21.7898 16.2006 21.7055 16.5381 21.4523 16.7912C21.1992 17.0443 20.7773 17.1287 20.5242 16.96C19.343 16.3693 18.0773 16.3693 16.9805 16.8756C18.1617 17.3818 19.343 18.0568 20.3555 18.9006L20.4398 18.8162Z" fill="white"/>
</svg>
