<svg width="40" height="41" viewBox="0 0 40 41" fill="none" xmlns="http://www.w3.org/2000/svg">
<rect y="0.0566406" width="40" height="40" rx="20" fill="#55BB96"/>
<path d="M22.2513 15.2914C19.8839 14.1369 17.1078 14.8197 15.4636 16.7648L17.9465 19.2494C18.2272 19.5302 18.2272 19.983 17.9465 20.2638C17.806 20.3985 17.6201 20.4706 17.4348 20.4706C17.2495 20.4706 17.0724 20.3985 16.9321 20.2638L14.7089 18.0046L8.95445 29.8101C8.8253 30.0796 8.81968 30.4053 8.95445 30.6919C9.20152 31.1915 9.80796 31.3994 10.3021 31.1582L16.3037 28.2271L14.098 26.0142C13.8115 25.7391 13.8115 25.2784 14.098 25.0035C14.3788 24.7227 14.8334 24.7227 15.1087 25.0035L17.6684 27.5631L22.2504 25.322C23.3286 24.7995 24.2494 23.9177 24.8168 22.7556C26.173 19.9857 25.023 16.648 22.2513 15.2914ZM26.3841 13.7281C27.2601 11.8953 26.8109 9.73362 24.9871 8.25659C22.7297 10.1321 22.6282 13.0857 24.6333 15.0802L24.9927 15.4396C27.0265 17.4431 29.9869 17.3443 31.8556 15.0847C30.3777 13.3013 28.1765 12.8521 26.3841 13.7281Z" fill="white"/>
</svg>
