<svg width="67" height="67" viewBox="0 0 67 67" fill="none" xmlns="http://www.w3.org/2000/svg">
<rect x="0.785156" y="0.923096" width="65.8706" height="65.8706" rx="32.9353" fill="#9A8266"/>
<path d="M34.5827 26.4673H33.6587V27.3676H34.5827V26.4673Z" fill="#FCFDE0"/>
<path d="M26.4655 22.9429H25.5415V23.8432H26.4655V22.9429Z" fill="#FCFDE0"/>
<path d="M33.028 19.6646H32.104V20.5649H33.028V19.6646Z" fill="#FCFDE0"/>
<path d="M38.5478 46.2666H25.271V47.2143H38.5478V46.2666Z" fill="#FCFDE0"/>
<path d="M18.6096 17.249H17.6369C17.6369 18.1158 17.2263 18.5228 16.7065 19.038C16.1396 19.5999 15.4971 20.2369 15.4971 21.4914C15.4971 22.746 16.1395 23.383 16.7065 23.9451C17.2264 24.4604 17.6369 24.8675 17.6369 25.7344C17.6369 26.6012 17.2263 27.0083 16.7065 27.5237C16.1396 28.0857 15.4971 28.7227 15.4971 29.9773H16.4697C16.4697 29.1104 16.8804 28.7034 17.4002 28.188C17.9671 27.626 18.6096 26.989 18.6096 25.7344C18.6096 24.4798 17.9671 23.8427 17.4002 23.2807C16.8803 22.7653 16.4697 22.3583 16.4697 21.4914C16.4697 20.6247 16.8804 20.2178 17.4001 19.7024C17.9671 19.1405 18.6096 18.5036 18.6096 17.249Z" fill="#FCFDE0"/>
<path d="M22.5246 17.249H21.552C21.552 18.1158 21.1413 18.5228 20.6215 19.038C20.0547 19.5999 19.4121 20.2369 19.4121 21.4914C19.4121 22.746 20.0546 23.383 20.6215 23.9451C21.1414 24.4604 21.552 24.8675 21.552 25.7344C21.552 26.6012 21.1413 27.0083 20.6215 27.5237C20.0547 28.0857 19.4121 28.7227 19.4121 29.9773H20.3848C20.3848 29.1104 20.7954 28.7034 21.3152 28.188C21.8821 27.626 22.5246 26.989 22.5246 25.7344C22.5246 24.4798 21.8822 23.8427 21.3152 23.2807C20.7953 22.7653 20.3848 22.3583 20.3848 21.4914C20.3848 20.6247 20.7954 20.2178 21.3151 19.7024C21.8822 19.1405 22.5246 18.5036 22.5246 17.249Z" fill="#FCFDE0"/>
<path d="M14.0759 44.1092C13.58 44.5983 13.2734 45.2697 13.2734 46.0099C13.2734 47.5023 14.5194 48.7165 16.0511 48.7165H42.7006V48.7169H44.0384C44.2453 48.7169 44.4508 48.7108 44.6557 48.7019L44.6564 48.7045C44.661 48.7034 44.6658 48.7022 44.6703 48.7011C49.4613 48.4887 53.6544 45.8754 55.2893 42.046C57.7502 40.7849 59.2713 38.3397 59.2713 35.6197C59.2713 31.616 55.9287 28.3587 51.8202 28.3587C51.5252 28.3587 51.2292 28.3776 50.9357 28.4114C50.8779 28.0883 50.8481 27.7606 50.8481 27.4328V26.8168H50.0933V25.9847H50.491V25.5108C50.491 22.7422 48.3489 20.4531 45.5948 20.131C45.7289 19.8886 45.8053 19.6116 45.8053 19.3176C45.8053 18.3687 45.013 17.5967 44.0391 17.5967C43.0653 17.5967 42.2731 18.3687 42.2731 19.3176C42.2731 19.6116 42.3495 19.8886 42.4834 20.131C39.7295 20.4531 37.5874 22.7421 37.5874 25.5108V25.9847H37.985V26.8168H37.229V27.4328C37.229 29.0446 36.5152 30.6182 35.2708 31.7502C33.5994 33.2703 32.5379 35.1647 32.1983 37.1928C31.9645 37.0624 31.8064 36.8174 31.8064 36.5366V31.0692C31.8064 28.5185 29.6766 26.4434 27.0588 26.4434H25.3119V27.3911C26.9118 27.3911 28.2134 28.6594 28.2134 30.2182V38.38C28.2134 39.4982 28.5035 40.5692 29.0569 41.5237H21.883C22.7002 40.9592 23.3523 40.1826 23.7524 39.2757C23.9653 39.3176 24.1827 39.3393 24.4036 39.3393C26.2049 39.3393 27.6702 37.9117 27.6702 36.1566C27.6702 34.4012 26.2049 32.973 24.4036 32.973C24.3334 32.973 24.2636 32.9754 24.1938 32.9797V31.8924H13.2734V37.1819C13.2734 38.973 14.1875 40.5592 15.5842 41.5237H12.5703V41.9975C12.5703 42.9636 13.1975 43.7893 14.0759 44.1092ZM40.6503 44.8054H27.2813V45.7532H40.3883C40.3829 45.8205 40.3797 45.8885 40.3797 45.957V46.0628C40.3797 46.7118 40.6201 47.307 41.0186 47.7687H16.051C15.0558 47.7687 14.2459 46.9796 14.2459 46.0098C14.2459 45.04 15.0557 44.251 16.051 44.251H41.0187C40.8734 44.4194 40.7495 44.6056 40.6503 44.8054ZM47.743 47.2337C49.3832 45.9636 50.6344 44.0376 51.2364 41.7271L50.2938 41.4939C49.4526 44.7218 47.247 47.113 44.5258 47.7594C44.364 47.7654 44.2015 47.7691 44.0383 47.7691H43.1033V47.7687C42.138 47.7687 41.3525 47.0034 41.3525 46.0628V45.957C41.3525 45.0164 42.138 44.2511 43.1033 44.2511H43.176C44.4513 44.2511 45.4887 43.2402 45.4887 41.9975V41.5237H37.7878C37.548 40.6161 37.4261 39.6701 37.4261 38.706C37.4261 36.365 38.1496 34.1315 39.4631 32.4175C40.4094 31.1854 40.9759 29.5052 41.0399 27.7646H47.0326C47.0966 29.5042 47.6627 31.1845 48.6084 32.4177C49.9226 34.1316 50.6464 36.365 50.6464 38.7064C50.6464 39.3475 50.592 39.9875 50.4849 40.6086L51.4441 40.7658C51.5601 40.0927 51.6191 39.3999 51.6191 38.7064C51.6191 36.1619 50.8267 33.7271 49.3877 31.8503C48.5637 30.7763 48.0684 29.3025 48.0058 27.7646H49.8837C49.8976 28.0331 49.9301 28.3006 49.977 28.5656L49.9567 28.5693L50.08 29.0493C50.081 29.053 50.0816 29.0566 50.0824 29.0602H50.0828C50.1919 29.4844 50.3441 29.9003 50.5349 30.2963C50.9242 31.104 51.4654 31.8263 52.1438 32.4428C54.0016 34.1331 55.0247 36.3263 55.0247 38.6178C55.0247 39.051 54.9883 39.4851 54.9165 39.9077C54.8224 40.4586 54.6674 41.005 54.4556 41.5316L54.4511 41.5429C53.354 44.2498 50.8445 46.3096 47.743 47.2337ZM44.0389 21.0384C45.5129 21.0384 46.7728 22.8256 46.9326 25.037H41.1452C41.3049 22.8256 42.5651 21.0384 44.0389 21.0384ZM45.4736 25.9847V26.8166H42.6042V25.9847H45.4736ZM55.9734 37.9833C55.8022 35.6594 54.6937 33.4661 52.8077 31.7499C52.5749 31.5384 52.3616 31.3121 52.1673 31.0732C54.6696 31.11 56.6939 33.1036 56.6939 35.5504C56.6939 36.3848 56.4221 37.2658 55.9734 37.9833ZM51.82 29.3065C55.3923 29.3065 58.2984 32.1385 58.2984 35.6197C58.2984 37.6234 57.3495 39.4561 55.7583 40.6363C55.8041 40.446 55.8434 40.2548 55.8761 40.0627C55.9072 39.8796 55.9307 39.6942 55.9498 39.5081C56.9955 38.5595 57.6666 37.0218 57.6666 35.5503C57.6666 32.558 55.1682 30.1237 52.0971 30.1237C51.9096 30.1237 51.7246 30.1331 51.5472 30.1504C51.5012 30.0658 51.4573 29.98 51.4155 29.8931C51.3281 29.7119 51.25 29.526 51.1822 29.3368C51.3943 29.3166 51.6074 29.3065 51.82 29.3065ZM49.1205 26.8167H46.4462V25.9848H49.1205V26.8167ZM49.4924 25.037H47.9075C47.8319 23.8005 47.4618 22.6473 46.8453 21.7497C46.7377 21.5928 46.6237 21.4476 46.5051 21.3117C48.1153 21.8878 49.3059 23.3182 49.4924 25.037ZM44.0389 18.5444C44.4764 18.5444 44.8324 18.8913 44.8324 19.3176C44.8324 19.7438 44.4764 20.0907 44.0389 20.0907C43.6014 20.0907 43.2456 19.7438 43.2456 19.3176C43.2456 18.8913 43.6014 18.5444 44.0389 18.5444ZM41.5726 21.3118C41.454 21.4477 41.3402 21.5929 41.2324 21.7498C40.6159 22.6474 40.246 23.8006 40.1702 25.0371H38.5853C38.7719 23.3182 39.9625 21.8878 41.5726 21.3118ZM41.6316 25.9847V26.8166H38.9575V25.9847H41.6316ZM35.9343 32.443C37.2899 31.2099 38.1015 29.5204 38.1926 27.7645H40.0665C40.004 29.3031 39.5084 30.7768 38.6841 31.85C37.2456 33.727 36.4534 36.1618 36.4534 38.7059C36.4534 39.6668 36.5668 40.6114 36.7874 41.5236H33.6212C33.2448 40.5907 33.0521 39.615 33.0521 38.6178C33.0521 36.3263 34.0757 34.1334 35.9343 32.443ZM29.1857 38.38V30.2182C29.1857 29.1561 28.7333 28.1951 28.0062 27.5084C29.6305 27.9191 30.8333 29.3598 30.8333 31.0692V36.5366C30.8333 37.3101 31.3655 37.9637 32.0914 38.1711C32.0837 38.3195 32.0794 38.4685 32.0794 38.6178C32.0794 39.6114 32.2484 40.5859 32.5823 41.5237H30.2049C29.5375 40.6011 29.1857 39.5191 29.1857 38.38ZM24.1935 35.1786C24.2471 35.1701 24.3012 35.1644 24.3567 35.1644C24.9178 35.1644 25.3743 35.6095 25.3743 36.1566C25.3743 36.7034 24.9178 37.1482 24.3567 37.1482C24.3012 37.1482 24.247 37.1424 24.1935 37.1342V35.1786ZM24.4033 33.9207C25.6682 33.9207 26.6973 34.9237 26.6973 36.1566C26.6973 37.389 25.6682 38.3916 24.4033 38.3916C24.2858 38.3916 24.1702 38.3808 24.056 38.3639C24.0779 38.2706 24.0973 38.1764 24.1139 38.0813C24.1943 38.091 24.2754 38.0958 24.3567 38.0958C25.4541 38.0958 26.3469 37.2258 26.3469 36.1565C26.3469 35.0868 25.4541 34.2166 24.3567 34.2166C24.3019 34.2166 24.2475 34.2195 24.1935 34.2236V33.9311C24.2631 33.9249 24.333 33.9207 24.4033 33.9207ZM14.246 37.1819V34.4627H21.7592V33.515H14.246V32.8402H23.2209V37.182C23.2209 39.4209 21.4844 41.271 19.255 41.5238H18.2119C15.9823 41.2709 14.246 39.4208 14.246 37.1819ZM18.152 42.4714C18.3432 42.4912 18.537 42.5018 18.7335 42.5018C18.93 42.5018 19.1238 42.4912 19.315 42.4714H44.425C44.2299 42.9579 43.7436 43.3034 43.1761 43.3034H43.1034H16.051H14.8832C14.3157 43.3034 13.8293 42.9578 13.6342 42.4714H18.152Z" fill="#FCFDE0"/>
</svg>
