<svg width="64" height="65" viewBox="0 0 64 65" fill="none" xmlns="http://www.w3.org/2000/svg">
<rect y="0.947998" width="64" height="64" rx="32" fill="#242325"/>
<path d="M50.1101 24.1389H45.8155V23.1845H17.1848V24.1389H12.8901V27.0019L17.1848 30.4185V41.3173C17.1885 42.8774 17.6902 44.4685 18.7514 45.6119C19.8126 46.7554 21.3555 47.8778 22.9109 47.9978V49.9066H26.2512V47.9978H36.7491V49.9066H40.0894V47.9978C41.6448 47.8778 43.0081 46.7554 44.0693 45.6119C45.1305 44.4685 45.8117 42.8774 45.8155 41.3173V30.4185L50.1101 27.0019V24.1389ZM13.8445 26.5248V25.0932H17.1848V29.2161L13.8445 26.5248ZM25.2968 48.9522H23.8653V47.9978H25.2968V48.9522ZM39.135 48.9522H37.7035V47.9978H39.135V48.9522ZM44.8612 41.3173C44.8612 44.2138 42.3273 47.0435 39.4356 47.0435H23.5694C20.6729 47.0435 18.1391 44.2138 18.1391 41.3173V24.1389H44.8612V41.3173ZM49.1558 26.5248L45.8155 29.2113V25.0932H49.1558V26.5248ZM37.2263 32.9667C37.2263 32.6503 37.1006 32.3469 36.8769 32.1231C36.6532 31.8994 36.3497 31.7737 36.0333 31.7737H26.4898C26.1734 31.7737 25.8699 31.8994 25.6462 32.1231C25.4225 32.3469 25.2968 32.6503 25.2968 32.9667V44.419C25.2968 44.7354 25.4225 45.0388 25.6462 45.2625C25.8699 45.4863 26.1734 45.6119 26.4898 45.6119H36.0333C36.3497 45.6119 36.6532 45.4863 36.8769 45.2625C37.1006 45.0388 37.2263 44.7354 37.2263 44.419V32.9667ZM36.2719 44.419C36.2719 44.4823 36.2468 44.543 36.2021 44.5877C36.1573 44.6324 36.0966 44.6576 36.0333 44.6576H26.4898C26.4265 44.6576 26.3658 44.6324 26.321 44.5877C26.2763 44.543 26.2512 44.4823 26.2512 44.419V32.9667C26.2512 32.9034 26.2763 32.8427 26.321 32.798C26.3658 32.7532 26.4265 32.7281 26.4898 32.7281H36.0333C36.0966 32.7281 36.1573 32.7532 36.2021 32.798C36.2468 32.8427 36.2719 32.9034 36.2719 32.9667V44.419ZM29.1107 37.2231C29.4381 37.2231 29.758 37.1258 30.0299 36.9435C30.3019 36.7612 30.5134 36.5022 30.6378 36.1994C30.7622 35.8966 30.7938 35.5637 30.7285 35.2429C30.6632 34.9221 30.5041 34.628 30.2713 34.3979C30.0385 34.1677 29.7425 34.012 29.421 33.9505C29.0995 33.8889 28.7669 33.9244 28.4656 34.0523C28.1642 34.1802 27.9077 34.3948 27.7286 34.6688C27.5495 34.9428 27.4559 35.2638 27.4597 35.5912C27.4647 36.0257 27.6409 36.4408 27.95 36.7463C28.259 37.0518 28.6761 37.2232 29.1107 37.2231ZM29.1107 34.8754C29.2477 34.8755 29.3816 34.9159 29.4957 34.9916C29.6098 35.0674 29.6991 35.1751 29.7524 35.3013C29.8056 35.4274 29.8205 35.5665 29.7951 35.7011C29.7697 35.8357 29.7052 35.9599 29.6097 36.058C29.5142 36.1562 29.3918 36.224 29.258 36.253C29.1241 36.282 28.9847 36.2709 28.8571 36.2211C28.7295 36.1712 28.6194 36.0849 28.5406 35.9729C28.4618 35.8609 28.4178 35.7281 28.414 35.5912C28.4115 35.4981 28.4276 35.4054 28.4615 35.3187C28.4954 35.232 28.5463 35.1529 28.6112 35.0862C28.6762 35.0194 28.7538 34.9664 28.8396 34.9302C28.9254 34.894 29.0176 34.8754 29.1107 34.8754ZM33.4435 37.2231C33.7709 37.2231 34.0908 37.1258 34.3627 36.9435C34.6347 36.7612 34.8462 36.5022 34.9706 36.1994C35.095 35.8966 35.1266 35.5637 35.0613 35.2429C34.996 34.9221 34.8369 34.628 34.6041 34.3979C34.3712 34.1677 34.0753 34.012 33.7538 33.9505C33.4322 33.8889 33.0997 33.9244 32.7984 34.0523C32.497 34.1802 32.2405 34.3948 32.0614 34.6688C31.8823 34.9428 31.7887 35.2638 31.7925 35.5912C31.7975 36.0257 31.9737 36.4408 32.2828 36.7463C32.5918 37.0518 33.0089 37.2232 33.4435 37.2231ZM33.4435 34.8754C33.5805 34.8755 33.7144 34.9159 33.8285 34.9916C33.9426 35.0674 34.0319 35.1751 34.0851 35.3013C34.1384 35.4274 34.1533 35.5665 34.1279 35.7011C34.1025 35.8357 34.038 35.9599 33.9425 36.058C33.847 36.1562 33.7246 36.224 33.5908 36.253C33.4569 36.282 33.3175 36.2709 33.1899 36.2211C33.0623 36.1712 32.9522 36.0849 32.8734 35.9729C32.7946 35.8609 32.7506 35.7281 32.7468 35.5912C32.7443 35.4981 32.7604 35.4054 32.7943 35.3187C32.8282 35.232 32.8791 35.1529 32.944 35.0862C33.009 35.0194 33.0866 34.9664 33.1724 34.9302C33.2582 34.894 33.3504 34.8754 33.4435 34.8754ZM45.8155 21.1179C45.8155 19.7437 44.8612 17.4389 41.8979 17.4389H35.3176V15.053H27.6827V17.4389H20.9211C18.1391 17.4389 17.2563 19.9441 17.1848 21.3136L17.1609 21.7335H45.8155V21.1179ZM28.6371 16.0073H34.3632V17.4389H28.6371V16.0073ZM18.2059 20.7791C18.3729 19.8248 18.9551 18.3932 20.9211 18.3932H41.917C44.007 18.3932 44.5271 19.8248 44.656 20.7791H18.2059Z" fill="#F1F1E7" stroke="#F1F1E7" stroke-width="0.2"/>
</svg>
