<svg width="67" height="67" viewBox="0 0 67 67" fill="none" xmlns="http://www.w3.org/2000/svg">
<rect x="0.947754" y="0.408447" width="65.8706" height="65.8706" rx="32.9353" fill="#9A8266"/>
<path d="M52.5227 24.2772H48.1026V23.295H18.635V24.2772H14.2148V27.224L18.635 30.7404V41.9578C18.6389 43.5634 19.1552 45.201 20.2474 46.3779C21.3396 47.5548 22.9276 48.71 24.5285 48.8335V50.798H27.9664V48.8335H38.7712V50.798H42.209V48.8335C43.8099 48.71 45.2131 47.5548 46.3053 46.3779C47.3975 45.201 48.0987 43.5634 48.1026 41.9578V30.7404L52.5227 27.224V24.2772ZM15.1971 26.7329V25.2595H18.635V29.5028L15.1971 26.7329ZM26.9841 49.8158H25.5107V48.8335H26.9841V49.8158ZM41.2268 49.8158H39.7534V48.8335H41.2268V49.8158ZM47.1203 41.9578C47.1203 44.9389 44.5124 47.8513 41.5362 47.8513H25.2063C22.2251 47.8513 19.6172 44.9389 19.6172 41.9578V24.2772H47.1203V41.9578ZM51.5404 26.7329L48.1026 29.4979V25.2595H51.5404V26.7329ZM39.2623 33.3631C39.2623 33.0374 39.1329 32.7251 38.9027 32.4949C38.6724 32.2646 38.3601 32.1352 38.0345 32.1352H28.2119C27.8863 32.1352 27.574 32.2646 27.3437 32.4949C27.1135 32.7251 26.9841 33.0374 26.9841 33.3631V45.1501C26.9841 45.4757 27.1135 45.788 27.3437 46.0183C27.574 46.2486 27.8863 46.3779 28.2119 46.3779H38.0345C38.3601 46.3779 38.6724 46.2486 38.9027 46.0183C39.1329 45.788 39.2623 45.4757 39.2623 45.1501V33.3631ZM38.28 45.1501C38.28 45.2152 38.2542 45.2777 38.2081 45.3237C38.1621 45.3698 38.0996 45.3957 38.0345 45.3957H28.2119C28.1468 45.3957 28.0844 45.3698 28.0383 45.3237C27.9923 45.2777 27.9664 45.2152 27.9664 45.1501V33.3631C27.9664 33.2979 27.9923 33.2355 28.0383 33.1894C28.0844 33.1434 28.1468 33.1175 28.2119 33.1175H38.0345C38.0996 33.1175 38.1621 33.1434 38.2081 33.1894C38.2542 33.2355 38.28 33.2979 38.28 33.3631V45.1501ZM30.9095 37.7439C31.2464 37.7439 31.5758 37.6437 31.8556 37.4561C32.1355 37.2685 32.3532 37.0019 32.4813 36.6903C32.6093 36.3786 32.6418 36.036 32.5746 35.7058C32.5074 35.3756 32.3436 35.0729 32.104 34.8361C31.8644 34.5992 31.5597 34.4389 31.2288 34.3756C30.8979 34.3123 30.5556 34.3487 30.2455 34.4804C29.9354 34.612 29.6713 34.8329 29.487 35.1149C29.3027 35.3969 29.2063 35.7274 29.2102 36.0643C29.2154 36.5115 29.3967 36.9387 29.7148 37.2532C30.033 37.5676 30.4622 37.7439 30.9095 37.7439ZM30.9095 35.3276C31.0505 35.3276 31.1883 35.3692 31.3058 35.4472C31.4232 35.5251 31.5151 35.636 31.5699 35.7659C31.6247 35.8957 31.64 36.0389 31.6139 36.1774C31.5878 36.316 31.5214 36.4437 31.4231 36.5447C31.3248 36.6458 31.1988 36.7156 31.0611 36.7454C30.9233 36.7752 30.7798 36.7638 30.6485 36.7125C30.5171 36.6613 30.4039 36.5724 30.3228 36.4571C30.2417 36.3418 30.1963 36.2052 30.1925 36.0643C30.1899 35.9685 30.2065 35.8731 30.2413 35.7838C30.2762 35.6945 30.3286 35.6132 30.3954 35.5445C30.4623 35.4758 30.5422 35.4212 30.6305 35.384C30.7188 35.3467 30.8137 35.3275 30.9095 35.3276ZM35.369 37.7439C35.7059 37.7439 36.0352 37.6437 36.315 37.4561C36.5949 37.2685 36.8127 37.0019 36.9407 36.6903C37.0687 36.3786 37.1012 36.036 37.034 35.7058C36.9668 35.3756 36.803 35.0729 36.5634 34.8361C36.3238 34.5992 36.0192 34.4389 35.6883 34.3756C35.3573 34.3123 35.0151 34.3487 34.7049 34.4804C34.3948 34.612 34.1308 34.8329 33.9464 35.1149C33.7621 35.3969 33.6658 35.7274 33.6697 36.0643C33.6748 36.5115 33.8561 36.9387 34.1743 37.2532C34.4924 37.5676 34.9217 37.7439 35.369 37.7439ZM35.369 35.3276C35.5099 35.3276 35.6477 35.3692 35.7652 35.4472C35.8827 35.5251 35.9745 35.636 36.0293 35.7659C36.0841 35.8957 36.0994 36.0389 36.0733 36.1774C36.0472 36.316 35.9808 36.4437 35.8825 36.5447C35.7842 36.6458 35.6583 36.7156 35.5205 36.7454C35.3827 36.7752 35.2392 36.7638 35.1079 36.7125C34.9766 36.6613 34.8633 36.5724 34.7822 36.4571C34.7011 36.3418 34.6558 36.2052 34.6519 36.0643C34.6493 35.9685 34.6659 35.8731 34.7007 35.7838C34.7356 35.6945 34.788 35.6132 34.8548 35.5445C34.9217 35.4758 35.0016 35.4212 35.0899 35.384C35.1782 35.3467 35.2731 35.3275 35.369 35.3276ZM48.1026 21.168C48.1026 19.7536 47.1203 17.3814 44.0704 17.3814H37.2978V14.9258H29.4398V17.3814H22.4805C19.6172 17.3814 18.7086 19.9598 18.635 21.3694L18.6104 21.8015H48.1026V21.168ZM30.422 15.908H36.3155V17.3814H30.422V15.908ZM19.686 20.8193C19.8579 19.837 20.4571 18.3637 22.4805 18.3637H44.0901C46.2412 18.3637 46.7765 19.837 46.9091 20.8193H19.686Z" fill="#FCFDE0" stroke="#FCFDE0" stroke-width="0.2"/>
</svg>
