<svg width="67" height="67" viewBox="0 0 67 67" fill="none" xmlns="http://www.w3.org/2000/svg">
<rect x="0.162598" y="0.923096" width="65.8706" height="65.8706" rx="32.9353" fill="#9A8266"/>
<g clip-path="url(#clip0_195_731)">
<path d="M35.9605 34.566H38.7748C38.8662 34.566 38.9562 34.5432 39.0371 34.4995C39.118 34.4557 39.1873 34.3924 39.2391 34.3149C39.2908 34.2375 39.3235 34.1482 39.3342 34.0549C39.3449 33.9615 39.3334 33.8669 39.3005 33.7792L36.5234 26.352C36.5077 24.7315 36.1439 23.1347 35.4579 21.6759C36.4576 21.1364 37.2949 20.3263 37.8795 19.333C38.4641 18.3397 38.7737 17.201 38.7748 16.0399C38.7748 15.8863 38.7155 15.7391 38.61 15.6305C38.5044 15.5219 38.3613 15.4609 38.212 15.4609H25.8291C22.9937 15.4642 20.2754 16.6241 18.2705 18.6863C16.2656 20.7485 15.1379 23.5444 15.1348 26.4608V33.987C15.138 34.0142 15.1433 34.0411 15.1505 34.0675H15.1404L16.2605 42.1333V49.6184C16.2605 49.772 16.3198 49.9192 16.4253 50.0278C16.5309 50.1364 16.6741 50.1974 16.8233 50.1974H27.5177C27.6669 50.1974 27.8101 50.1364 27.9157 50.0278C28.0212 49.9192 28.0805 49.772 28.0805 49.6184V43.829H35.3977C35.547 43.829 35.6901 43.768 35.7957 43.6595C35.9012 43.5509 35.9605 43.4036 35.9605 43.2501V34.566ZM16.2605 26.4608C16.2633 23.8514 17.2723 21.3498 19.0662 19.5047C20.86 17.6596 23.2922 16.6217 25.8291 16.6188H37.6176C37.4777 17.8919 36.8873 19.0676 35.9589 19.9217C35.0305 20.7759 33.829 21.2488 32.5834 21.2503H21.3262C21.1769 21.2503 21.0338 21.3113 20.9282 21.4199C20.8227 21.5285 20.7634 21.6757 20.7634 21.8293V24.2029C20.1302 24.3356 19.5608 24.6883 19.1506 25.2018C18.7405 25.7153 18.5146 26.3583 18.5109 27.0228C18.5072 27.6874 18.7259 28.333 19.1303 28.8513C19.5348 29.3696 20.1002 29.7289 20.7318 29.869C20.6093 30.8465 20.1451 31.7448 19.4259 32.396C18.7067 33.0473 17.7816 33.407 16.8233 33.4081H16.2605V26.4608ZM35.3977 33.4081C35.2484 33.4081 35.1052 33.4691 34.9997 33.5777C34.8941 33.6862 34.8348 33.8335 34.8348 33.987V38.6186H33.1462C32.8477 38.6186 32.5614 38.4966 32.3502 38.2794C32.1391 38.0623 32.0205 37.7678 32.0205 37.4607H30.8948C30.8948 38.0749 31.132 38.6639 31.5542 39.0982C31.9765 39.5325 32.5491 39.7764 33.1462 39.7764H34.8348V42.6711H27.5177C27.3684 42.6711 27.2252 42.7321 27.1197 42.8407C27.0141 42.9493 26.9548 43.0965 26.9548 43.2501V49.0395H17.3862V42.0922C17.3863 42.0647 17.3844 42.0372 17.3806 42.01L16.3466 34.566H16.8233C18.1664 34.5644 19.454 34.015 20.4037 33.0382C21.3534 32.0614 21.8876 30.7369 21.8891 29.3555C21.8891 29.202 21.8298 29.0547 21.7242 28.9461C21.6187 28.8376 21.4755 28.7766 21.3262 28.7766C20.8784 28.7766 20.4489 28.5936 20.1322 28.2679C19.8155 27.9422 19.6376 27.5004 19.6376 27.0397C19.6376 26.5791 19.8155 26.1373 20.1322 25.8116C20.4489 25.4859 20.8784 25.3029 21.3262 25.3029C21.4755 25.3029 21.6187 25.2419 21.7242 25.1334C21.8298 25.0248 21.8891 24.8775 21.8891 24.724V22.4082H32.5834C33.2045 22.4086 33.8222 22.3125 34.4155 22.1234C35.0614 23.4728 35.3974 24.9567 35.3977 26.4608C35.3976 26.5318 35.4102 26.6023 35.4348 26.6686L37.9553 33.4081H35.3977Z" fill="#FCFDE0"/>
<path d="M30.8945 28.6373C30.5247 28.6381 30.1585 28.5635 29.817 28.4179C29.4755 28.2722 29.1654 28.0583 28.9048 27.7886L28.1089 28.6072C28.4745 28.984 28.9088 29.2829 29.3869 29.4868C29.865 29.6908 30.3775 29.7958 30.895 29.7958C31.4126 29.7958 31.9251 29.6908 32.4032 29.4868C32.8813 29.2829 33.3155 28.984 33.6812 28.6072L32.8853 27.7886C32.6245 28.0584 32.3143 28.2724 31.9726 28.4181C31.6308 28.5638 31.2644 28.6383 30.8945 28.6373Z" fill="#FCFDE0"/>
<path d="M49.3949 26.7254L47.1435 22.6728C47.094 22.5846 47.0228 22.5114 46.937 22.4606C46.8512 22.4098 46.7539 22.3831 46.6549 22.3833H39.3378C39.1885 22.3833 39.0453 22.4443 38.9398 22.5529C38.8342 22.6614 38.7749 22.8087 38.7749 22.9622V27.5938C38.7749 27.7473 38.8342 27.8946 38.9398 28.0031C39.0453 28.1117 39.1885 28.1727 39.3378 28.1727H41.6635L42.1577 31.7286C42.1769 31.8665 42.2439 31.9926 42.3462 32.0839C42.4486 32.1751 42.5795 32.2253 42.7149 32.2253H44.2301L44.9787 35.8199C45.0057 35.9495 45.075 36.0657 45.1752 36.1491C45.2754 36.2324 45.4004 36.2779 45.5292 36.2779H48.9064C49.0556 36.2779 49.1988 36.2169 49.3044 36.1083C49.4099 35.9997 49.4692 35.8525 49.4692 35.6989V27.0148C49.4696 26.9133 49.4439 26.8135 49.3949 26.7254ZM43.2035 31.0674L42.8016 28.1727H43.3858L43.9892 31.0674H43.2035ZM48.3435 35.12H45.9846L44.3911 27.4728C44.3642 27.3432 44.2948 27.227 44.1946 27.1436C44.0944 27.0603 43.9695 27.0148 43.8406 27.0148H39.9006V23.5412H46.3285L48.3435 27.1688V35.12Z" fill="#FCFDE0"/>
<path d="M42.7149 15.461L40.4634 17.7769L41.2594 18.5956L43.5109 16.2798L42.7149 15.461Z" fill="#FCFDE0"/>
<path d="M44.592 18.2279L41.7778 19.3857L42.1959 20.4608L45.0101 19.303L44.592 18.2279Z" fill="#FCFDE0"/>
<path d="M45.2875 42.0923C44.397 42.0923 43.5264 42.3639 42.7859 42.8728C42.0454 43.3818 41.4682 44.1051 41.1274 44.9514C40.7866 45.7977 40.6974 46.7289 40.8712 47.6274C41.0449 48.5258 41.4738 49.3511 42.1035 49.9988C42.7333 50.6465 43.5356 51.0876 44.4091 51.2663C45.2825 51.445 46.1879 51.3533 47.0107 51.0028C47.8335 50.6522 48.5368 50.0586 49.0315 49.2969C49.5263 48.5353 49.7904 47.6398 49.7904 46.7238C49.7891 45.4959 49.3142 44.3186 48.4701 43.4503C47.6259 42.5821 46.4814 42.0937 45.2875 42.0923V42.0923ZM45.2875 50.1975C44.6196 50.1975 43.9667 49.9937 43.4113 49.612C42.8559 49.2304 42.4231 48.6878 42.1675 48.0531C41.9118 47.4184 41.845 46.72 41.9753 46.0461C42.1056 45.3723 42.4272 44.7534 42.8995 44.2676C43.3718 43.7818 43.9736 43.4509 44.6287 43.3169C45.2838 43.1829 45.9628 43.2517 46.5799 43.5146C47.197 43.7775 47.7245 44.2227 48.0955 44.794C48.4666 45.3652 48.6647 46.0368 48.6647 46.7238C48.6638 47.6448 48.3077 48.5278 47.6746 49.179C47.0414 49.8303 46.1829 50.1965 45.2875 50.1975V50.1975Z" fill="#FCFDE0"/>
<path d="M45.8503 37.7505H44.7246V38.9084H45.8503V37.7505Z" fill="#FCFDE0"/>
<path d="M45.8503 40.0659H44.7246V41.2238H45.8503V40.0659Z" fill="#FCFDE0"/>
<path d="M39.3376 46.145H38.2119V47.3029H39.3376V46.145Z" fill="#FCFDE0"/>
<path d="M37.0862 46.145H35.9604V47.3029H37.0862V46.145Z" fill="#FCFDE0"/>
<path d="M34.8347 46.145H33.709V47.3029H34.8347V46.145Z" fill="#FCFDE0"/>
<path d="M32.5832 46.145H31.4575V47.3029H32.5832V46.145Z" fill="#FCFDE0"/>
<path d="M30.3318 46.145H29.2061V47.3029H30.3318V46.145Z" fill="#FCFDE0"/>
</g>
<defs>
<clipPath id="clip0_195_731">
<rect width="36.023" height="37.0522" fill="white" transform="translate(14.5718 14.3032)"/>
</clipPath>
</defs>
</svg>
