<svg width="64" height="65" viewBox="0 0 64 65" fill="none" xmlns="http://www.w3.org/2000/svg">
<rect y="0.448242" width="64" height="64" rx="32" fill="#242325"/>
<path d="M32.8375 25.2672H31.9397V26.142H32.8375V25.2672Z" fill="#F1F1E7"/>
<path d="M24.951 21.8429H24.0532V22.7177H24.951V21.8429Z" fill="#F1F1E7"/>
<path d="M31.327 18.6573H30.4292V19.5321H31.327V18.6573Z" fill="#F1F1E7"/>
<path d="M36.6901 44.5043H23.7903V45.4251H36.6901V44.5043Z" fill="#F1F1E7"/>
<path d="M17.3183 16.3105H16.3733C16.3733 17.1527 15.9743 17.5481 15.4693 18.0488C14.9185 18.5947 14.2942 19.2136 14.2942 20.4325C14.2942 21.6514 14.9184 22.2703 15.4693 22.8164C15.9744 23.3172 16.3733 23.7127 16.3733 24.5549C16.3733 25.3971 15.9743 25.7927 15.4693 26.2934C14.9185 26.8395 14.2942 27.4584 14.2942 28.6774H15.2392C15.2392 27.8351 15.6382 27.4396 16.1433 26.9389C16.694 26.3929 17.3183 25.7739 17.3183 24.5549C17.3183 23.336 16.6941 22.717 16.1433 22.171C15.6381 21.6702 15.2392 21.2747 15.2392 20.4325C15.2392 19.5904 15.6382 19.195 16.1432 18.6942C16.694 18.1483 17.3183 17.5295 17.3183 16.3105Z" fill="#F1F1E7"/>
<path d="M21.1218 16.3105H20.1767C20.1767 17.1527 19.7778 17.5481 19.2727 18.0488C18.722 18.5947 18.0977 19.2136 18.0977 20.4325C18.0977 21.6514 18.7219 22.2703 19.2727 22.8164C19.7778 23.3172 20.1767 23.7127 20.1767 24.5549C20.1767 25.3971 19.7778 25.7927 19.2727 26.2934C18.722 26.8395 18.0977 27.4584 18.0977 28.6774H19.0427C19.0427 27.8351 19.4417 27.4396 19.9467 26.9389C20.4975 26.3929 21.1218 25.7739 21.1218 24.5549C21.1218 23.336 20.4976 22.717 19.9467 22.171C19.4416 21.6702 19.0427 21.2747 19.0427 20.4325C19.0427 19.5904 19.4417 19.195 19.9466 18.6942C20.4976 18.1483 21.1218 17.5295 21.1218 16.3105Z" fill="#F1F1E7"/>
<path d="M12.9133 42.4082C12.4315 42.8834 12.1335 43.5358 12.1335 44.2549C12.1335 45.7049 13.3442 46.8847 14.8324 46.8847H40.7251V46.885H42.0249C42.2259 46.885 42.4256 46.8791 42.6246 46.8705L42.6254 46.873C42.6298 46.8719 42.6345 46.8707 42.6389 46.8697C47.2938 46.6633 51.3678 44.1242 52.9563 40.4035C55.3474 39.1783 56.8252 36.8025 56.8252 34.1598C56.8252 30.2697 53.5776 27.105 49.5857 27.105C49.2991 27.105 49.0115 27.1233 48.7263 27.1562C48.6702 26.8422 48.6413 26.5239 48.6413 26.2054V25.6068H47.9079V24.7984H48.2942V24.338C48.2942 21.6479 46.213 19.4239 43.5371 19.1109C43.6674 18.8754 43.7416 18.6063 43.7416 18.3206C43.7416 17.3987 42.9719 16.6486 42.0256 16.6486C41.0794 16.6486 40.3098 17.3987 40.3098 18.3206C40.3098 18.6063 40.3839 18.8754 40.5141 19.1109C37.8384 19.4239 35.7571 21.6478 35.7571 24.338V24.7984H36.1434V25.6068H35.4089V26.2054C35.4089 27.7714 34.7154 29.3003 33.5063 30.4001C31.8823 31.8771 30.851 33.7177 30.521 35.6882C30.2939 35.5615 30.1403 35.3234 30.1403 35.0507V29.7385C30.1403 27.2603 28.071 25.244 25.5275 25.244H23.8302V26.1649C25.3846 26.1649 26.6493 27.3971 26.6493 28.9116V36.8417C26.6493 37.9281 26.9312 38.9687 27.4688 39.8961H20.4987C21.2927 39.3476 21.9262 38.5931 22.315 37.7119C22.5218 37.7527 22.7331 37.7738 22.9477 37.7738C24.6979 37.7738 26.1216 36.3867 26.1216 34.6814C26.1216 32.9759 24.6979 31.5882 22.9477 31.5882C22.8795 31.5882 22.8116 31.5905 22.7439 31.5948V30.5383H12.1335V35.6776C12.1335 37.4178 13.0217 38.959 14.3787 39.8961H11.4504V40.3565C11.4504 41.2951 12.0598 42.0974 12.9133 42.4082ZM38.7331 43.0847H25.7436V44.0055H38.4785C38.4733 44.0709 38.4701 44.137 38.4701 44.2035V44.3063C38.4701 44.9369 38.7037 45.5152 39.0908 45.9638H14.8323C13.8653 45.9638 13.0785 45.1971 13.0785 44.2548C13.0785 43.3126 13.8652 42.546 14.8323 42.546H39.0909C38.9498 42.7096 38.8294 42.8905 38.7331 43.0847ZM45.6243 45.444C47.2179 44.21 48.4336 42.3386 49.0185 40.0938L48.1027 39.8672C47.2854 43.0033 45.1424 45.3267 42.4985 45.9547C42.3412 45.9605 42.1834 45.9641 42.0248 45.9641H41.1164V45.9638C40.1785 45.9638 39.4153 45.2202 39.4153 44.3063V44.2035C39.4153 43.2896 40.1785 42.5461 41.1164 42.5461H41.187C42.4261 42.5461 43.4341 41.5638 43.4341 40.3565V39.8961H35.9518C35.7188 39.0143 35.6003 38.0952 35.6003 37.1584C35.6003 34.8839 36.3034 32.7138 37.5795 31.0485C38.499 29.8514 39.0494 28.2189 39.1115 26.5277H44.934C44.9962 28.2179 45.5463 29.8505 46.4651 31.0486C47.742 32.7139 48.4453 34.8839 48.4453 37.1588C48.4453 37.7817 48.3924 38.4035 48.2884 39.007L49.2203 39.1597C49.333 38.5057 49.3903 37.8326 49.3903 37.1588C49.3903 34.6866 48.6205 32.3209 47.2223 30.4975C46.4217 29.4539 45.9404 28.0219 45.8797 26.5277H47.7042C47.7178 26.7886 47.7493 27.0485 47.7949 27.306L47.7751 27.3096L47.895 27.776C47.8959 27.7796 47.8965 27.7831 47.8973 27.7866H47.8977C48.0036 28.1987 48.1515 28.6028 48.337 28.9875C48.7152 29.7723 49.241 30.4741 49.9001 31.0731C51.7052 32.7154 52.6993 34.8463 52.6993 37.0727C52.6993 37.4936 52.6638 37.9154 52.5941 38.326C52.5027 38.8613 52.3521 39.3921 52.1463 39.9038L52.1419 39.9148C51.076 42.5448 48.6378 44.5461 45.6243 45.444ZM42.0254 19.9926C43.4575 19.9926 44.6816 21.7289 44.8369 23.8776H39.2139C39.3691 21.7289 40.5935 19.9926 42.0254 19.9926ZM43.4193 24.7984V25.6067H40.6315V24.7984H43.4193ZM53.621 36.4563C53.4546 34.1984 52.3777 32.0673 50.5451 30.3998C50.319 30.1944 50.1117 29.9745 49.9229 29.7424C52.3542 29.7781 54.3211 31.7151 54.3211 34.0924C54.3211 34.9032 54.0569 35.7591 53.621 36.4563ZM49.5855 28.0258C53.0564 28.0258 55.88 30.7775 55.88 34.1598C55.88 36.1066 54.958 37.8872 53.412 39.0339C53.4565 38.849 53.4947 38.6632 53.5265 38.4766C53.5567 38.2987 53.5795 38.1185 53.5981 37.9378C54.614 37.0161 55.2661 35.522 55.2661 34.0923C55.2661 31.185 52.8387 28.8198 49.8548 28.8198C49.6726 28.8198 49.4928 28.8289 49.3205 28.8458C49.2758 28.7636 49.2331 28.6802 49.1925 28.5958C49.1076 28.4197 49.0317 28.2391 48.9659 28.0553C49.1719 28.0357 49.379 28.0258 49.5855 28.0258ZM46.9627 25.6068H44.3644V24.7985H46.9627V25.6068ZM47.3241 23.8776H45.7841C45.7107 22.6762 45.3511 21.5557 44.7521 20.6836C44.6475 20.5312 44.5367 20.3901 44.4215 20.258C45.9861 20.8178 47.1428 22.2076 47.3241 23.8776ZM42.0254 17.5694C42.4505 17.5694 42.7964 17.9064 42.7964 18.3206C42.7964 18.7347 42.4505 19.0718 42.0254 19.0718C41.6003 19.0718 41.2546 18.7347 41.2546 18.3206C41.2546 17.9064 41.6003 17.5694 42.0254 17.5694ZM39.6291 20.2581C39.5139 20.3902 39.4034 20.5312 39.2986 20.6837C38.6996 21.5558 38.3402 22.6763 38.2666 23.8777H36.7266C36.908 22.2076 38.0647 20.8178 39.6291 20.2581ZM39.6864 24.7984V25.6067H37.0883V24.7984H39.6864ZM34.1509 31.0732C35.468 29.8752 36.2566 28.2336 36.3451 26.5277H38.1658C38.1051 28.0226 37.6236 29.4544 36.8227 30.4971C35.425 32.3208 34.6553 34.6865 34.6553 37.1583C34.6553 38.0919 34.7655 39.0097 34.9798 39.896H31.9035C31.5378 38.9896 31.3506 38.0417 31.3506 37.0727C31.3506 34.8463 32.3451 32.7157 34.1509 31.0732ZM27.594 36.8417V28.9116C27.594 27.8797 27.1544 26.946 26.448 26.2789C28.0262 26.6778 29.1948 28.0777 29.1948 29.7385V35.0507C29.1948 35.8021 29.7119 36.4372 30.4172 36.6387C30.4097 36.7829 30.4055 36.9277 30.4055 37.0728C30.4055 38.0382 30.5697 38.9849 30.8941 39.8961H28.5842C27.9358 38.9997 27.594 37.9485 27.594 36.8417ZM22.7436 33.7312C22.7957 33.723 22.8482 33.7174 22.9021 33.7174C23.4473 33.7174 23.8908 34.1498 23.8908 34.6814C23.8908 35.2127 23.4473 35.6449 22.9021 35.6449C22.8482 35.6449 22.7956 35.6393 22.7436 35.6312V33.7312ZM22.9474 32.5091C24.1764 32.5091 25.1762 33.4835 25.1762 34.6814C25.1762 35.8789 24.1764 36.853 22.9474 36.853C22.8332 36.853 22.7209 36.8425 22.61 36.826C22.6312 36.7354 22.65 36.6439 22.6662 36.5515C22.7444 36.5609 22.8232 36.5656 22.9021 36.5656C23.9684 36.5656 24.8358 35.7203 24.8358 34.6813C24.8358 33.642 23.9684 32.7965 22.9021 32.7965C22.8489 32.7965 22.7961 32.7993 22.7436 32.8033V32.5191C22.8112 32.5131 22.8791 32.5091 22.9474 32.5091ZM13.0786 35.6776V33.0357H20.3783V32.1149H13.0786V31.4592H21.7986V35.6777C21.7986 37.853 20.1114 39.6506 17.9453 39.8962H16.9318C14.7656 39.6505 13.0786 37.8529 13.0786 35.6776ZM16.8737 40.8169C17.0594 40.8361 17.2477 40.8464 17.4386 40.8464C17.6295 40.8464 17.8179 40.8361 18.0036 40.8169H42.4006C42.211 41.2896 41.7385 41.6253 41.1871 41.6253H41.1164H14.8323H13.6977C13.1462 41.6253 12.6737 41.2895 12.4841 40.8169H16.8737Z" fill="#F1F1E7"/>
</svg>
