<svg width="40" height="41" viewBox="0 0 40 41" fill="none" xmlns="http://www.w3.org/2000/svg">
<rect y="0.256836" width="40" height="40" rx="20" fill="#FFAE68"/>
<path d="M20.0001 8.5354C25.0443 8.5354 29.1367 17.4241 29.1367 22.6011C29.1367 27.778 25.0871 31.9782 20.0001 31.9782C14.9987 31.9782 10.8634 27.822 10.8634 22.6011C10.8634 17.4241 14.9987 8.5354 20.0001 8.5354ZM21.5181 14.4938C23.0171 16.4034 24.5684 19.954 24.5684 22.6011C24.5684 23.0308 24.9091 23.3825 25.3298 23.3825C25.7504 23.3825 26.0912 23.0308 26.0912 22.6011C26.0912 19.4968 24.3447 15.6024 22.702 13.517C22.4374 13.1797 21.9578 13.1278 21.6313 13.3995C21.3039 13.6684 21.2516 14.1617 21.5181 14.4938Z" fill="white"/>
</svg>
