<svg width="41" height="41" viewBox="0 0 41 41" fill="none" xmlns="http://www.w3.org/2000/svg">
<rect x="0.859375" y="0.660156" width="40" height="40" rx="20" fill="#FFAE68"/>
<path d="M22.7601 12.5352C18.3866 12.5352 14.5672 15.3164 12.4415 17.6961L8.19624 14.342C7.60659 13.8758 6.72624 14.3724 6.87694 15.0864L8.05235 20.6602L6.87645 26.2344C6.72576 26.9484 7.6061 27.4445 8.19576 26.9789L12.441 23.6248C14.5667 26.0039 18.3866 28.7852 22.7601 28.7852C29.4422 28.7852 34.8594 22.2852 34.8594 20.6602C34.8594 19.0352 29.4422 12.5352 22.7601 12.5352ZM27.0102 21.8789C26.3661 21.8789 25.8435 21.333 25.8435 20.6602C25.8435 19.9868 26.3661 19.4414 27.0102 19.4414C27.6548 19.4414 28.1769 19.9868 28.1769 20.6602C28.1769 21.333 27.6543 21.8789 27.0102 21.8789Z" fill="white"/>
</svg>
