<svg width="64" height="65" viewBox="0 0 64 65" fill="none" xmlns="http://www.w3.org/2000/svg">
<rect y="0.448242" width="64" height="64" rx="32" fill="#242325"/>
<path d="M34.7812 33.1357H37.5156C37.6044 33.1358 37.6919 33.1136 37.7705 33.0711C37.849 33.0286 37.9164 32.9671 37.9667 32.8918C38.017 32.8166 38.0487 32.7299 38.0591 32.6392C38.0695 32.5485 38.0583 32.4565 38.0264 32.3713L35.3281 25.155C35.3129 23.5806 34.9594 22.0291 34.2929 20.6117C35.2642 20.0876 36.0777 19.3005 36.6457 18.3354C37.2137 17.3703 37.5145 16.2639 37.5156 15.1357C37.5156 14.9866 37.458 14.8435 37.3554 14.738C37.2529 14.6325 37.1138 14.5732 36.9688 14.5732H24.9375C22.1827 14.5764 19.5415 15.7034 17.5936 17.707C15.6456 19.7106 14.5499 22.4272 14.5469 25.2607V32.5732C14.55 32.5997 14.5551 32.6258 14.5622 32.6514H14.5523L15.6406 40.4882V47.7607C15.6406 47.9099 15.6982 48.053 15.8008 48.1585C15.9034 48.264 16.0425 48.3232 16.1875 48.3232H26.5781C26.7232 48.3232 26.8623 48.264 26.9648 48.1585C27.0674 48.053 27.125 47.9099 27.125 47.7607V42.1357H34.2344C34.3794 42.1357 34.5185 42.0765 34.6211 41.971C34.7236 41.8655 34.7812 41.7224 34.7812 41.5732V33.1357ZM15.6406 25.2607C15.6434 22.7255 16.6237 20.2949 18.3667 18.5022C20.1096 16.7095 22.4727 15.7011 24.9375 15.6982H36.3913C36.2553 16.9352 35.6817 18.0774 34.7797 18.9073C33.8776 19.7372 32.7102 20.1967 31.5 20.1982H20.5625C20.4175 20.1982 20.2784 20.2575 20.1758 20.363C20.0732 20.4685 20.0156 20.6116 20.0156 20.7607V23.067C19.4005 23.1959 18.8472 23.5386 18.4487 24.0375C18.0502 24.5364 17.8307 25.1611 17.8271 25.8068C17.8235 26.4525 18.036 27.0798 18.429 27.5833C18.8219 28.0869 19.3713 28.4361 19.985 28.5722C19.866 29.5219 19.415 30.3947 18.7162 31.0274C18.0173 31.6602 17.1185 32.0097 16.1875 32.0107H15.6406V25.2607ZM34.2344 32.0107C34.0893 32.0107 33.9502 32.07 33.8477 32.1755C33.7451 32.281 33.6875 32.4241 33.6875 32.5732V37.0732H32.0469C31.7568 37.0732 31.4786 36.9547 31.2735 36.7437C31.0684 36.5328 30.9531 36.2466 30.9531 35.9482H29.8594C29.8594 36.545 30.0898 37.1173 30.5001 37.5392C30.9103 37.9612 31.4667 38.1982 32.0469 38.1982H33.6875V41.0107H26.5781C26.4331 41.0107 26.294 41.07 26.1914 41.1755C26.0889 41.281 26.0312 41.4241 26.0312 41.5732V47.1982H16.7344V40.4482C16.7345 40.4215 16.7326 40.3948 16.7289 40.3684L15.7243 33.1357H16.1875C17.4924 33.1343 18.7435 32.6004 19.6662 31.6513C20.5889 30.7022 21.1079 29.4154 21.1094 28.0732C21.1094 27.9241 21.0518 27.781 20.9492 27.6755C20.8466 27.57 20.7075 27.5107 20.5625 27.5107C20.1274 27.5107 19.7101 27.333 19.4024 27.0165C19.0947 26.7 18.9219 26.2708 18.9219 25.8232C18.9219 25.3757 19.0947 24.9465 19.4024 24.63C19.7101 24.3135 20.1274 24.1357 20.5625 24.1357C20.7075 24.1357 20.8466 24.0765 20.9492 23.971C21.0518 23.8655 21.1094 23.7224 21.1094 23.5732V21.3232H31.5C32.1035 21.3236 32.7036 21.2303 33.2801 21.0465C33.9076 22.3576 34.2341 23.7994 34.2344 25.2607C34.2343 25.3298 34.2465 25.3982 34.2705 25.4627L36.7194 32.0107H34.2344Z" fill="#F1F1E7"/>
<path d="M29.8593 27.3752C29.5001 27.376 29.1443 27.3035 28.8124 27.162C28.4806 27.0204 28.1794 26.8126 27.9261 26.5505L27.1528 27.3459C27.5081 27.712 27.93 28.0024 28.3946 28.2006C28.8591 28.3987 29.357 28.5007 29.8599 28.5007C30.3627 28.5007 30.8607 28.3987 31.3252 28.2006C31.7897 28.0024 32.2116 27.712 32.5669 27.3459L31.7936 26.5505C31.5402 26.8127 31.2388 27.0206 30.9068 27.1622C30.5748 27.3037 30.2187 27.3761 29.8593 27.3752Z" fill="#F1F1E7"/>
<path d="M47.8341 26.1045L45.6466 22.167C45.5985 22.0813 45.5293 22.0102 45.4459 21.9608C45.3626 21.9114 45.2681 21.8855 45.1719 21.8857H38.0625C37.9175 21.8857 37.7784 21.945 37.6758 22.0505C37.5732 22.156 37.5156 22.2991 37.5156 22.4482V26.9482C37.5156 27.0974 37.5732 27.2405 37.6758 27.346C37.7784 27.4515 37.9175 27.5107 38.0625 27.5107H40.3222L40.8023 30.9656C40.821 31.0996 40.8861 31.2222 40.9855 31.3108C41.085 31.3995 41.2122 31.4483 41.3438 31.4482H42.8159L43.5433 34.9408C43.5694 35.0667 43.6368 35.1796 43.7342 35.2606C43.8315 35.3416 43.9529 35.3858 44.0781 35.3857H47.3594C47.5044 35.3857 47.6435 35.3265 47.7461 35.221C47.8486 35.1155 47.9062 34.9724 47.9062 34.8232V26.3857C47.9066 26.2871 47.8817 26.1901 47.8341 26.1045ZM41.8184 30.3232L41.428 27.5107H41.9956L42.5819 30.3232H41.8184ZM46.8125 34.2607H44.5205L42.9723 26.8307C42.9462 26.7048 42.8788 26.5919 42.7815 26.5109C42.6841 26.4299 42.5627 26.3857 42.4375 26.3857H38.6094V23.0107H44.8547L46.8125 26.5354V34.2607Z" fill="#F1F1E7"/>
<path d="M39.3165 16.4252L37.1289 18.6753L37.9023 19.4708L40.0899 17.2207L39.3165 16.4252Z" fill="#F1F1E7"/>
<path d="M41.1406 19.1136L38.4062 20.2385L38.8125 21.2831L41.5468 20.1581L41.1406 19.1136Z" fill="#F1F1E7"/>
<path d="M43.5313 39.8857C42.666 39.8857 41.8201 40.1497 41.1006 40.6441C40.3812 41.1386 39.8204 41.8414 39.4893 42.6637C39.1581 43.4859 39.0715 44.3907 39.2403 45.2636C39.4091 46.1366 39.8258 46.9384 40.4377 47.5677C41.0495 48.1971 41.8291 48.6256 42.6777 48.7993C43.5264 48.9729 44.4061 48.8838 45.2055 48.5432C46.0049 48.2026 46.6882 47.6258 47.1689 46.8858C47.6497 46.1458 47.9063 45.2758 47.9063 44.3857C47.9049 43.1927 47.4436 42.0489 46.6234 41.2052C45.8032 40.3616 44.6912 39.8871 43.5313 39.8857ZM43.5313 47.7607C42.8823 47.7607 42.2479 47.5628 41.7083 47.192C41.1687 46.8211 40.7481 46.294 40.4998 45.6773C40.2514 45.0606 40.1864 44.382 40.3131 43.7273C40.4397 43.0726 40.7522 42.4713 41.2111 41.9993C41.6699 41.5273 42.2546 41.2058 42.8911 41.0756C43.5276 40.9454 44.1874 41.0122 44.7869 41.2676C45.3865 41.5231 45.899 41.9557 46.2595 42.5107C46.6201 43.0657 46.8125 43.7182 46.8125 44.3857C46.8116 45.2806 46.4657 46.1385 45.8505 46.7712C45.2353 47.404 44.4012 47.7598 43.5313 47.7607Z" fill="#F1F1E7"/>
<path d="M42.9843 44.7153L42.2772 43.988L41.5039 44.7834L42.5977 45.9084C42.7002 46.0139 42.8393 46.0731 42.9843 46.0731C43.1293 46.0731 43.2684 46.0139 43.3709 45.9084L46.1053 43.0959L45.332 42.3005L42.9843 44.7153Z" fill="#F1F1E7"/>
<path d="M46.2656 36.5107H45.1719V37.6357H46.2656V36.5107Z" fill="#F1F1E7"/>
<path d="M46.2656 38.7607H45.1719V39.8857H46.2656V38.7607Z" fill="#F1F1E7"/>
<path d="M38.0625 43.8232H36.9688V44.9482H38.0625V43.8232Z" fill="#F1F1E7"/>
<path d="M35.875 43.8232H34.7812V44.9482H35.875V43.8232Z" fill="#F1F1E7"/>
<path d="M33.6875 43.8232H32.5938V44.9482H33.6875V43.8232Z" fill="#F1F1E7"/>
<path d="M31.5 43.8232H30.4062V44.9482H31.5V43.8232Z" fill="#F1F1E7"/>
<path d="M29.3125 43.8232H28.2188V44.9482H29.3125V43.8232Z" fill="#F1F1E7"/>
</svg>
