<svg width="40" height="41" viewBox="0 0 40 41" fill="none" xmlns="http://www.w3.org/2000/svg">
<rect x="0.67041" y="0.851318" width="38.75" height="40" rx="19.375" fill="#55BB96"/>
<path d="M26.4172 15.1381C24.9672 14.2318 23.6984 13.3256 22.6109 12.3287C21.9766 11.6943 21.5234 10.7881 21.5234 9.88184C21.5234 9.33809 21.1609 8.97559 20.6172 8.97559H18.8047C18.2609 8.97559 17.8984 9.33809 17.8984 9.88184C17.8984 10.7881 17.4453 11.6943 16.8109 12.3287C15.7234 13.3256 14.4547 14.2318 13.0047 15.1381C9.92344 17.0412 7.92969 20.2131 7.92969 23.2943C7.92969 25.1975 8.65469 27.01 10.1047 28.3693C10.5578 28.8225 11.1016 29.185 11.6453 29.4568C10.7391 27.4631 10.7391 25.2881 11.5547 23.2037C12.1891 23.2037 12.8234 23.2037 13.5484 23.2037C12.5516 25.2881 12.5516 27.735 13.8203 29.6381C15.0891 31.5412 17.1734 32.5381 19.7109 32.5381C22.3391 32.5381 24.4234 31.5412 25.6016 29.7287C26.6891 28.0975 26.9609 25.9225 26.2359 23.9287L26.1453 23.4756C26.7797 23.4756 27.4141 23.4756 28.0484 23.4756C28.6828 25.4693 28.5922 27.5537 27.8672 29.3662C28.4109 29.0943 28.8641 28.7318 29.3172 28.2787C30.7672 26.8287 31.4922 25.1068 31.4922 23.2037C31.4922 20.2131 29.5891 17.0412 26.4172 15.1381Z" fill="white"/>
</svg>
