<svg width="22" height="22" viewBox="0 0 22 22" fill="none" xmlns="http://www.w3.org/2000/svg">
<path d="M4.52712 11.0009C4.52712 10.2378 4.65994 9.50643 4.89901 8.82527L1.21432 6.02246C0.44019 7.51878 0 9.20865 0 11.0009C0 12.7503 0.419319 14.4048 1.15929 15.8732L4.85727 13.0611C4.64286 12.4116 4.52712 11.7193 4.52712 11.0009Z" fill="#FBBC05"/>
<path d="M11.331 17.6748C8.30657 17.6748 5.74512 15.7393 4.85905 13.0612L1.15918 15.8733C2.99204 19.5043 6.80385 22 11.2133 22C14.0992 22 16.636 20.9299 18.5258 19.173L15.029 16.5153C14.012 17.2468 12.7521 17.6748 11.331 17.6748Z" fill="#34A853"/>
<path d="M11.3311 4.32518C12.9913 4.32518 14.4314 4.90957 15.5224 5.8792L18.0213 3.41883L18.5772 2.87167C16.6836 1.08874 14.126 0 11.2154 0C6.84765 0 3.06619 2.4492 1.21436 6.0225L4.89905 8.82345C5.81927 6.20675 8.35036 4.32518 11.3311 4.32518Z" fill="#EA4335"/>
<path d="M21.8124 8.91833H17.4238H11.1416V13.0928H17.4219C17.0045 14.4979 16.1696 15.6983 15.0293 16.5172L18.5262 19.1748C20.2129 17.6059 21.3779 15.4861 21.8105 13.0928C21.9338 12.4153 22.0002 11.7174 22.0002 11.0009C22.0002 10.2881 21.9338 9.59205 21.8124 8.91833Z" fill="#4285F3"/>
</svg>
