<svg width="25" height="25" viewBox="0 0 25 25" fill="none" xmlns="http://www.w3.org/2000/svg">
<g clip-path="url(#clip0_363_605)">
<path d="M9.36012 3.41089H4.68012C4.26638 3.41089 3.86959 3.56892 3.57703 3.85023C3.28447 4.13153 3.12012 4.51306 3.12012 4.91089V9.41089C3.12012 9.80871 3.28447 10.1902 3.57703 10.4715C3.86959 10.7529 4.26638 10.9109 4.68012 10.9109H9.36012C9.77385 10.9109 10.1706 10.7529 10.4632 10.4715C10.7558 10.1902 10.9201 9.80871 10.9201 9.41089V4.91089C10.9201 4.51306 10.7558 4.13153 10.4632 3.85023C10.1706 3.56892 9.77385 3.41089 9.36012 3.41089ZM9.36012 9.41089H4.68012V4.91089H9.36012V9.41089Z" fill="#242325"/>
<path d="M20.28 3.41089H15.6C15.1863 3.41089 14.7895 3.56892 14.497 3.85023C14.2044 4.13153 14.04 4.51306 14.04 4.91089V9.41089C14.04 9.80871 14.2044 10.1902 14.497 10.4715C14.7895 10.7529 15.1863 10.9109 15.6 10.9109H20.28C20.6938 10.9109 21.0906 10.7529 21.3831 10.4715C21.6757 10.1902 21.84 9.80871 21.84 9.41089V4.91089C21.84 4.51306 21.6757 4.13153 21.3831 3.85023C21.0906 3.56892 20.6938 3.41089 20.28 3.41089ZM20.28 9.41089H15.6V4.91089H20.28V9.41089Z" fill="#242325"/>
<path d="M9.36012 13.9109H4.68012C4.26638 13.9109 3.86959 14.0689 3.57703 14.3502C3.28447 14.6315 3.12012 15.0131 3.12012 15.4109V19.9109C3.12012 20.3087 3.28447 20.6902 3.57703 20.9715C3.86959 21.2529 4.26638 21.4109 4.68012 21.4109H9.36012C9.77385 21.4109 10.1706 21.2529 10.4632 20.9715C10.7558 20.6902 10.9201 20.3087 10.9201 19.9109V15.4109C10.9201 15.0131 10.7558 14.6315 10.4632 14.3502C10.1706 14.0689 9.77385 13.9109 9.36012 13.9109ZM9.36012 19.9109H4.68012V15.4109H9.36012V19.9109Z" fill="#242325"/>
<path d="M20.28 13.9109H15.6C15.1863 13.9109 14.7895 14.0689 14.497 14.3502C14.2044 14.6315 14.04 15.0131 14.04 15.4109V19.9109C14.04 20.3087 14.2044 20.6902 14.497 20.9715C14.7895 21.2529 15.1863 21.4109 15.6 21.4109H20.28C20.6938 21.4109 21.0906 21.2529 21.3831 20.9715C21.6757 20.6902 21.84 20.3087 21.84 19.9109V15.4109C21.84 15.0131 21.6757 14.6315 21.3831 14.3502C21.0906 14.0689 20.6938 13.9109 20.28 13.9109ZM20.28 19.9109H15.6V15.4109H20.28V19.9109Z" fill="#242325"/>
</g>
<defs>
<clipPath id="clip0_363_605">
<rect width="24.96" height="24" fill="white" transform="translate(0 0.410889)"/>
</clipPath>
</defs>
</svg>
