<svg width="18" height="19" viewBox="0 0 18 19" fill="none" xmlns="http://www.w3.org/2000/svg">
<path d="M13.3733 17.9098H4.30647C2.10083 17.9098 0.306396 16.1224 0.306396 13.9254V8.33827C0.306396 7.10341 0.894907 5.91909 1.88062 5.17019L6.41404 1.72606C7.84237 0.640954 9.8374 0.640954 11.2657 1.72606L15.7991 5.17019C16.7849 5.91905 17.3734 7.10338 17.3734 8.33827V13.9254C17.3734 16.1224 15.5789 17.9098 13.3733 17.9098ZM8.83988 2.23952C8.26924 2.23952 7.69883 2.42034 7.22265 2.78206L2.68924 6.22618C2.03209 6.72546 1.63975 7.515 1.63975 8.33827V13.9254C1.63975 15.39 2.83604 16.5816 4.30647 16.5816H13.3733C14.8437 16.5816 16.04 15.39 16.04 13.9254V8.33827C16.04 7.51503 15.6477 6.72546 14.9905 6.22622L10.4571 2.78209C9.98107 2.42044 9.41039 2.23952 8.83988 2.23952Z" fill="#242325" stroke="#242325" stroke-width="0.5"/>
</svg>
