<svg width="64" height="65" viewBox="0 0 64 65" fill="none" xmlns="http://www.w3.org/2000/svg">
<rect y="0.448242" width="64" height="64" rx="32" fill="#242325"/>
<g clip-path="url(#clip0_476_331)">
<path d="M38.9313 29.667C38.8929 29.4871 38.8741 29.3038 38.875 29.1201C38.875 28.3949 39.1713 27.6994 39.6988 27.1866C40.2262 26.6738 40.9416 26.3857 41.6875 26.3857C42.4335 26.3857 43.1488 26.6738 43.6763 27.1866C44.2037 27.6994 44.5 28.3949 44.5 29.1201C44.5022 29.3039 44.4833 29.4873 44.4438 29.667" stroke="#F1F1E7" stroke-linejoin="round"/>
<path d="M15.25 34.042H49C49 37.813 47.4592 41.4296 44.7164 44.0962C41.9737 46.7627 38.2538 48.2607 34.375 48.2607H29.875C27.9544 48.2607 26.0526 47.893 24.2783 47.1784C22.5039 46.4638 20.8916 45.4165 19.5336 44.0962C16.7908 41.4296 15.25 37.813 15.25 34.042V34.042Z" stroke="#F1F1E7" stroke-linejoin="round"/>
<path d="M36.625 34.042C36.2577 33.5698 36.0601 32.9934 36.0625 32.4014C36.0625 31.6762 36.3588 30.9807 36.8863 30.4679C37.4137 29.9551 38.1291 29.667 38.875 29.667C39.6209 29.667 40.3363 29.9551 40.8638 30.4679C41.3912 30.9807 41.6875 31.6762 41.6875 32.4014C41.69 32.9934 41.4924 33.5698 41.125 34.042" stroke="#F1F1E7" stroke-linejoin="round"/>
<path d="M42.25 34.042C41.8827 33.5698 41.6851 32.9934 41.6875 32.4014C41.6875 31.9681 41.7934 31.541 41.9965 31.1554C42.1996 30.7697 42.494 30.4365 42.8555 30.1831C43.2171 29.9298 43.6353 29.7636 44.0759 29.6983C44.5164 29.6329 44.9666 29.6703 45.3894 29.8073C45.8122 29.9443 46.1954 30.177 46.5075 30.4863C46.8197 30.7956 47.0517 31.1725 47.1846 31.5861C47.3175 31.9996 47.3474 32.438 47.2718 32.865C47.1963 33.292 47.0174 33.6954 46.75 34.042" stroke="#F1F1E7" stroke-linejoin="round"/>
<path d="M44.5 28.3818C44.6567 28.1282 44.8457 27.8948 45.0625 27.6873V27.6873C45.7834 26.9873 46.7605 26.594 47.7794 26.5935H48.4375V27.2333C48.437 28.2239 48.0324 29.1738 47.3125 29.8748C47.0687 30.1089 46.7945 30.3112 46.4969 30.4763" stroke="#F1F1E7" stroke-linejoin="round"/>
<path d="M25.9375 31.3076L16.375 22.0107V27.2115C16.376 29.6813 17.2142 32.082 18.76 34.042" stroke="#F1F1E7" stroke-linejoin="round"/>
<path d="M18.625 24.1982V26.8943C18.6251 29.3701 19.6368 31.7445 21.4375 33.4951V33.4951C21.6344 33.6865 21.8369 33.867 22.0506 34.042" stroke="#F1F1E7" stroke-linejoin="round"/>
<path d="M34.375 34.042C35.0908 34.0442 35.78 33.7778 36.2987 33.2982" stroke="#F1F1E7" stroke-linejoin="round"/>
<path d="M36.9512 30.2139C36.8003 29.8799 36.5822 29.5787 36.3098 29.3279C36.0374 29.0772 35.7161 28.8819 35.3649 28.7537C35.4502 28.52 35.4958 28.2743 35.4999 28.0264C35.4995 27.5253 35.3223 27.0396 34.9977 26.6504C34.6731 26.2611 34.221 25.9921 33.7168 25.8881C33.7773 25.6947 33.8095 25.4941 33.8124 25.292C33.8124 24.7118 33.5754 24.1554 33.1534 23.7452C32.7315 23.335 32.1592 23.1045 31.5624 23.1045C30.9657 23.1045 30.3934 23.335 29.9714 23.7452C29.5495 24.1554 29.3124 24.7118 29.3124 25.292C29.3154 25.4941 29.3476 25.6947 29.408 25.8881C28.9039 25.9921 28.4517 26.2611 28.1272 26.6504C27.8026 27.0396 27.6253 27.5253 27.6249 28.0264C27.629 28.2743 27.6746 28.52 27.7599 28.7537C27.1472 28.9816 26.6356 29.4105 26.3138 29.9663C25.992 30.5221 25.8801 31.1698 25.9976 31.7973C26.1151 32.4248 26.4545 32.9926 26.9571 33.4025C27.4597 33.8125 28.0939 34.0387 28.7499 34.042H34.3749" stroke="#F1F1E7" stroke-linejoin="round"/>
<path d="M45.9513 26.9326C45.8005 26.5987 45.5824 26.2975 45.31 26.0467C45.0376 25.7959 44.7163 25.6007 44.3651 25.4725C44.4504 25.2387 44.496 24.9931 44.5001 24.7451C44.4997 24.2441 44.3224 23.7583 43.9978 23.3691C43.6733 22.9799 43.2211 22.7108 42.717 22.6068C42.7774 22.4135 42.8096 22.2128 42.8126 22.0107C42.8126 21.4306 42.5755 20.8742 42.1536 20.4639C41.7316 20.0537 41.1593 19.8232 40.5626 19.8232C39.9658 19.8232 39.3935 20.0537 38.9716 20.4639C38.5496 20.8742 38.3126 21.4306 38.3126 22.0107C38.3155 22.2128 38.3477 22.4135 38.4082 22.6068C37.904 22.7108 37.4519 22.9799 37.1273 23.3691C36.8028 23.7583 36.6255 24.2441 36.6251 24.7451C36.6292 24.9931 36.6748 25.2387 36.7601 25.4725C36.4089 25.6007 36.0876 25.7959 35.8152 26.0467C35.5428 26.2975 35.3247 26.5987 35.1738 26.9326" stroke="#F1F1E7" stroke-linejoin="round"/>
<path d="M31.5625 34.042V26.9326" stroke="#F1F1E7" stroke-linejoin="round"/>
<path d="M31.5625 29.667L33.25 28.0264" stroke="#F1F1E7" stroke-linejoin="round"/>
<path d="M31.5625 31.8545L29.875 30.2139" stroke="#F1F1E7" stroke-linejoin="round"/>
<path d="M15.25 36.2295H49" stroke="#F1F1E7" stroke-linejoin="round"/>
<path d="M21.4375 22.5576C20.7176 21.8567 20.313 20.9068 20.3125 19.9162V19.2764H20.9706C21.9895 19.2768 22.9666 19.6702 23.6875 20.3701V20.3701C24.4074 21.071 24.812 22.021 24.8125 23.0115V23.6514H24.1544C23.1355 23.6509 22.1584 23.2576 21.4375 22.5576V22.5576Z" stroke="#F1F1E7" stroke-linejoin="round"/>
<path d="M32.125 18.7295C32.8449 18.0286 33.2495 17.0786 33.25 16.0881V15.4482H32.5919C31.573 15.4487 30.5959 15.8421 29.875 16.542V16.542C29.1551 17.2429 28.7505 18.1928 28.75 19.1834V19.8232H29.4081C30.427 19.8228 31.4041 19.4294 32.125 18.7295V18.7295Z" stroke="#F1F1E7" stroke-linejoin="round"/>
<path d="M32.125 36.2295V40.6045C32.125 40.8946 32.2435 41.1728 32.4545 41.3779C32.6655 41.583 32.9516 41.6982 33.25 41.6982C33.5484 41.6982 33.8345 41.583 34.0455 41.3779C34.2565 41.1728 34.375 40.8946 34.375 40.6045V39.5107C34.375 39.2207 34.4935 38.9425 34.7045 38.7373C34.9155 38.5322 35.2016 38.417 35.5 38.417C35.7984 38.417 36.0845 38.5322 36.2955 38.7373C36.5065 38.9425 36.625 39.2207 36.625 39.5107V42.792C36.625 43.0821 36.7435 43.3603 36.9545 43.5654C37.1655 43.7705 37.4516 43.8857 37.75 43.8857C38.0484 43.8857 38.3345 43.7705 38.5455 43.5654C38.7565 43.3603 38.875 43.0821 38.875 42.792V40.6045C38.875 40.3144 38.9935 40.0362 39.2045 39.8311C39.4155 39.626 39.7016 39.5107 40 39.5107C40.2984 39.5107 40.5845 39.626 40.7955 39.8311C41.0065 40.0362 41.125 40.3144 41.125 40.6045V41.1514C41.125 41.4414 41.2435 41.7196 41.4545 41.9248C41.6655 42.1299 41.9516 42.2451 42.25 42.2451C42.5484 42.2451 42.8345 42.1299 43.0455 41.9248C43.2565 41.7196 43.375 41.4414 43.375 41.1514V36.2295" stroke="#F1F1E7" stroke-linejoin="round"/>
</g>
<defs>
<clipPath id="clip0_476_331">
<rect width="36" height="35" fill="white" transform="translate(13 15.4482)"/>
</clipPath>
</defs>
</svg>
