<svg width="67" height="67" viewBox="0 0 67 67" fill="none" xmlns="http://www.w3.org/2000/svg">
<rect x="0.325684" y="0.923096" width="65.8706" height="65.8706" rx="32.9353" fill="#9A8266"/>
<path d="M40.2659 31.6628C40.2265 31.4777 40.2071 31.289 40.208 31.0999C40.208 30.3535 40.513 29.6377 41.0559 29.1099C41.5987 28.5821 42.335 28.2856 43.1027 28.2856C43.8705 28.2856 44.6067 28.5821 45.1496 29.1099C45.6925 29.6377 45.9974 30.3535 45.9974 31.0999C45.9997 31.2891 45.9803 31.4778 45.9396 31.6628" stroke="#FCFDE0" stroke-linejoin="round"/>
<path d="M15.8926 36.1655H50.629C50.629 40.0468 49.0431 43.7691 46.2202 46.5136C43.3974 49.258 39.5687 50.7999 35.5766 50.7999H30.945C28.9683 50.7999 27.011 50.4213 25.1847 49.6859C23.3585 48.9504 21.6991 47.8725 20.3013 46.5136C17.4785 43.7691 15.8926 40.0468 15.8926 36.1655V36.1655Z" stroke="#FCFDE0" stroke-linejoin="round"/>
<path d="M37.8924 36.1655C37.5144 35.6795 37.311 35.0862 37.3135 34.4769C37.3135 33.7305 37.6185 33.0147 38.1613 32.4869C38.7042 31.9591 39.4405 31.6626 40.2082 31.6626C40.9759 31.6626 41.7122 31.9591 42.2551 32.4869C42.7979 33.0147 43.1029 33.7305 43.1029 34.4769C43.1054 35.0862 42.902 35.6795 42.524 36.1655" stroke="#FCFDE0" stroke-linejoin="round"/>
<path d="M43.682 36.1655C43.3039 35.6795 43.1005 35.0862 43.1031 34.4769C43.1031 34.031 43.212 33.5914 43.4211 33.1945C43.6301 32.7975 43.9331 32.4546 44.3052 32.1938C44.6773 31.9331 45.1078 31.762 45.5612 31.6948C46.0146 31.6275 46.478 31.666 46.9131 31.807C47.3483 31.948 47.7427 32.1876 48.0639 32.5059C48.3852 32.8242 48.624 33.2121 48.7608 33.6378C48.8975 34.0634 48.9283 34.5146 48.8506 34.954C48.7728 35.3935 48.5887 35.8087 48.3135 36.1655" stroke="#FCFDE0" stroke-linejoin="round"/>
<path d="M45.9976 30.3401C46.1588 30.0791 46.3534 29.8389 46.5765 29.6252V29.6252C47.3185 28.9048 48.3241 28.5 49.3728 28.4995H50.0501V29.1581C50.0496 30.1776 49.6332 31.1553 48.8923 31.8767C48.6413 32.1177 48.3591 32.3258 48.0528 32.4958" stroke="#FCFDE0" stroke-linejoin="round"/>
<path d="M26.8928 33.3513L17.0508 23.7827V29.1355C17.0518 31.6775 17.9145 34.1483 19.5055 36.1656" stroke="#FCFDE0" stroke-linejoin="round"/>
<path d="M19.3667 26.0342V28.8091C19.3668 31.3572 20.408 33.801 22.2614 35.6028V35.6028C22.464 35.7998 22.6724 35.9855 22.8924 36.1656" stroke="#FCFDE0" stroke-linejoin="round"/>
<path d="M35.5767 36.1654C36.3134 36.1677 37.0227 35.8935 37.5566 35.3999" stroke="#FCFDE0" stroke-linejoin="round"/>
<path d="M38.2282 32.2254C38.0729 31.8817 37.8485 31.5716 37.5681 31.3136C37.2877 31.0555 36.9571 30.8545 36.5956 30.7225C36.6834 30.482 36.7303 30.2291 36.7345 29.9739C36.7342 29.4582 36.5517 28.9583 36.2176 28.5577C35.8836 28.1571 35.4182 27.8802 34.8993 27.7732C34.9615 27.5741 34.9947 27.3676 34.9977 27.1596C34.9977 26.5625 34.7537 25.9899 34.3195 25.5676C33.8852 25.1454 33.2961 24.9082 32.682 24.9082C32.0678 24.9082 31.4788 25.1454 31.0445 25.5676C30.6102 25.9899 30.3662 26.5625 30.3662 27.1596C30.3693 27.3676 30.4024 27.5741 30.4646 27.7732C29.9457 27.8802 29.4804 28.1571 29.1463 28.5577C28.8122 28.9583 28.6298 29.4582 28.6294 29.9739C28.6336 30.2291 28.6806 30.482 28.7683 30.7225C28.1377 30.957 27.6112 31.3985 27.2799 31.9706C26.9487 32.5426 26.8336 33.2092 26.9545 33.8551C27.0754 34.5009 27.4247 35.0853 27.942 35.5072C28.4593 35.9291 29.1121 36.1619 29.7873 36.1654H35.5767" stroke="#FCFDE0" stroke-linejoin="round"/>
<path d="M47.4914 28.8484C47.3361 28.5047 47.1117 28.1947 46.8313 27.9366C46.5509 27.6785 46.2203 27.4776 45.8588 27.3456C45.9466 27.105 45.9935 26.8522 45.9978 26.597C45.9974 26.0813 45.8149 25.5813 45.4808 25.1807C45.1468 24.7802 44.6814 24.5032 44.1625 24.3962C44.2248 24.1972 44.2579 23.9907 44.2609 23.7827C44.2609 23.1856 44.017 22.6129 43.5827 22.1907C43.1484 21.7685 42.5594 21.5313 41.9452 21.5312C41.331 21.5313 40.742 21.7685 40.3077 22.1907C39.8734 22.6129 39.6294 23.1856 39.6294 23.7827C39.6325 23.9907 39.6656 24.1972 39.7278 24.3962C39.2089 24.5032 38.7436 24.7802 38.4095 25.1807C38.0755 25.5813 37.893 26.0813 37.8926 26.597C37.8968 26.8522 37.9438 27.105 38.0315 27.3456C37.6701 27.4776 37.3394 27.6785 37.059 27.9366C36.7786 28.1947 36.5542 28.5047 36.3989 28.8484" stroke="#FCFDE0" stroke-linejoin="round"/>
<path d="M32.6821 36.1658V28.8486" stroke="#FCFDE0" stroke-linejoin="round"/>
<path d="M32.6821 31.6627L34.419 29.9741" stroke="#FCFDE0" stroke-linejoin="round"/>
<path d="M32.6821 33.9142L30.9453 32.2256" stroke="#FCFDE0" stroke-linejoin="round"/>
<path d="M15.8926 38.417H50.629" stroke="#FCFDE0" stroke-linejoin="round"/>
<path d="M22.2614 24.3454C21.5204 23.624 21.104 22.6463 21.1035 21.6268V20.9683H21.7809C22.8295 20.9687 23.8351 21.3736 24.5772 22.094V22.094C25.3181 22.8154 25.7345 23.7931 25.735 24.8126V25.4711H25.0577C24.009 25.4707 23.0034 25.0658 22.2614 24.3454V24.3454Z" stroke="#FCFDE0" stroke-linejoin="round"/>
<path d="M33.2608 20.4055C34.0017 19.6841 34.4181 18.7064 34.4186 17.6869V17.0283H33.7413C32.6926 17.0288 31.687 17.4336 30.945 18.154V18.154C30.204 18.8754 29.7876 19.8531 29.7871 20.8726V21.5312H30.4645C31.5131 21.5307 32.5187 21.1259 33.2608 20.4055V20.4055Z" stroke="#FCFDE0" stroke-linejoin="round"/>
</svg>
