<svg width="23" height="23" viewBox="0 0 23 23" fill="none" xmlns="http://www.w3.org/2000/svg">
<path d="M22.2362 1.31058C22.2202 1.08776 22.1244 0.878162 21.9665 0.720201C21.8085 0.56224 21.5989 0.466498 21.3761 0.450523C12.6265 -0.0655104 5.61989 2.57199 2.6269 7.51444C1.59096 9.20455 1.0801 11.1642 1.15907 13.1449C1.22788 14.9683 1.75538 16.826 2.74158 18.6493L14.2434 7.13602C14.4216 6.98973 14.6479 6.91497 14.8782 6.92628C15.1085 6.93759 15.3264 7.03417 15.4895 7.19722C15.6525 7.36027 15.7491 7.57814 15.7604 7.80846C15.7717 8.03877 15.697 8.26506 15.5507 8.4433L4.03739 19.9451C5.86071 20.9313 7.71843 21.4588 9.54175 21.5276H9.92017C11.7732 21.5356 13.5918 21.0273 15.1722 20.0598C20.1147 17.0668 22.7522 10.0602 22.2362 1.31058Z" fill="#242325"/>
<path d="M3.09661 19.2687C2.97047 19.0622 2.8558 18.8558 2.74112 18.6494L0.482046 20.897C0.309776 21.071 0.213135 21.3059 0.213135 21.5507C0.213135 21.7955 0.309776 22.0304 0.482046 22.2043C0.657396 22.3739 0.89177 22.4686 1.13569 22.4686C1.37961 22.4686 1.61398 22.3739 1.78933 22.2043L4.03694 19.9452L3.4177 19.5897C3.28886 19.507 3.17935 19.3975 3.09661 19.2687Z" fill="#242325"/>
</svg>
