<svg width="12" height="12" viewBox="0 0 12 12" fill="none" xmlns="http://www.w3.org/2000/svg">
<path d="M10.0625 3.94481H7.625V1.91356C7.66593 1.52353 7.55025 1.13321 7.30341 0.828467C7.05657 0.523723 6.69878 0.329514 6.30875 0.28856C6.20619 0.276372 6.10256 0.276372 6 0.28856H5.36219C5.22639 0.29228 5.09567 0.340971 4.99054 0.426993C4.8854 0.513015 4.81179 0.631504 4.78125 0.763873V0.812622L4.375 3.38825L2.93688 5.56981H0.3125V11.2573H8.03125C11.0538 11.2573 11.6875 9.49012 11.6875 8.00731V5.56981C11.7284 5.17978 11.6128 4.78946 11.3659 4.48472C11.1191 4.17997 10.7613 3.98576 10.3713 3.94481C10.2687 3.93262 10.1651 3.93262 10.0625 3.94481ZM2.75 10.4448H1.125V6.38231H2.75V10.4448ZM10.875 8.00731C10.875 9.66887 9.97313 10.4448 8.03125 10.4448H3.5625V6.09793L5.1875 3.68887L5.48406 1.50731L5.54094 1.10106H6C6.585 1.10106 6.8125 1.32856 6.8125 1.91356V4.75731H10.0625C10.6475 4.75731 10.875 4.98481 10.875 5.56981V8.00731Z" fill="#8D8D8D"/>
</svg>
