<svg width="234" height="61" viewBox="0 0 234 61" fill="none" xmlns="http://www.w3.org/2000/svg">
<g clip-path="url(#clip0_42_823)">
<path d="M174.048 61.3578V11.1002C173.97 9.66546 174.197 8.23055 174.714 6.88872C175.23 5.5469 176.026 4.32823 177.048 3.31225C178.07 2.29628 179.296 1.50564 180.646 0.991921C181.996 0.478198 183.44 0.252933 184.883 0.330659H211.032V10.7413H187.917C187.665 10.7193 187.411 10.7525 187.173 10.8385C186.936 10.9246 186.719 11.0614 186.54 11.2393C186.361 11.4172 186.224 11.6319 186.137 11.8683C186.051 12.1048 186.017 12.3572 186.039 12.6078V61.3578H174.048Z" fill="#FFFFE2"/>
<path d="M221.686 61.3503V0.32312H233.605V61.3503H221.686Z" fill="#FFFFE2"/>
<path d="M-0.0733028 61.3581V11.1004C-0.151502 9.6657 0.0751365 8.23079 0.591991 6.88897C1.10885 5.54714 1.9043 4.32847 2.92647 3.3125C3.94864 2.29652 5.17452 1.50589 6.52452 0.992165C7.87453 0.478443 9.31841 0.253178 10.7619 0.330903H36.9468V10.7415H13.7594C13.5101 10.7251 13.2601 10.7623 13.0267 10.8508C12.7933 10.9394 12.5822 11.0769 12.4072 11.2542C12.2323 11.4315 12.0976 11.6443 12.0131 11.878C11.9286 12.1117 11.896 12.3607 11.9174 12.6081V61.3581H-0.0733028Z" fill="#FFFFE2"/>
<path d="M94.4814 61.3578V11.1002C94.4032 9.66546 94.6298 8.23055 95.1467 6.88872C95.6635 5.5469 96.459 4.32823 97.4812 3.31225C98.5033 2.29628 99.7296 1.50564 101.08 0.991921C102.43 0.478198 103.873 0.252933 105.317 0.330659H163.574V10.7413H108.35C108.098 10.7193 107.844 10.7525 107.606 10.8385C107.369 10.9246 107.152 11.0614 106.973 11.2393C106.794 11.4172 106.657 11.6319 106.57 11.8683C106.484 12.1048 106.45 12.3572 106.473 12.6078V61.3578H94.4814Z" fill="#FFFFE2"/>
<path d="M163.501 25.6315H103.077V36.042H163.501V25.6315Z" fill="#FFFFE2"/>
<path d="M59.015 36.6522V30.9445H84.2971V20.5339H59.015V12.7081C58.993 12.4574 59.0263 12.205 59.1129 11.9686C59.1995 11.7321 59.3373 11.5174 59.5163 11.3395C59.6953 11.1616 59.9111 11.0248 60.149 10.9388C60.3869 10.8527 60.641 10.8194 60.8932 10.8413H84.0078V0.32309H57.859C56.4156 0.245365 54.9721 0.47063 53.6221 0.984352C52.2721 1.49807 51.0458 2.28871 50.0236 3.30469C49.0015 4.32066 48.206 5.53933 47.6892 6.88116C47.1723 8.22298 46.9457 9.65789 47.0239 11.0926V50.5808C46.9457 52.0155 47.1723 53.4506 47.6892 54.7924C48.206 56.1343 49.0015 57.3527 50.0236 58.3687C51.0458 59.3847 52.2721 60.1753 53.6221 60.689C54.9721 61.2027 56.4156 61.428 57.859 61.3503H84.0078V50.9037H60.8932C60.641 50.9257 60.3869 50.8925 60.149 50.8065C59.9111 50.7204 59.6953 50.5838 59.5163 50.4059C59.3373 50.228 59.1995 50.0131 59.1129 49.7767C59.0263 49.5402 58.993 49.2876 59.015 49.0369V36.6522Z" fill="#FFFFE2"/>
</g>
<defs>
<clipPath id="clip0_42_823">
<rect width="234" height="61" fill="white"/>
</clipPath>
</defs>
</svg>
