<svg width="73" height="20" viewBox="0 0 73 20" fill="none" xmlns="http://www.w3.org/2000/svg">
<path d="M54.1883 19.401V3.7616C54.164 3.31514 54.2345 2.86862 54.3953 2.45107C54.5562 2.03351 54.8037 1.65428 55.1218 1.33813C55.4398 1.02197 55.8213 0.775939 56.2414 0.616077C56.6615 0.456215 57.1108 0.386116 57.56 0.410303H65.6971V3.64991H58.5041C58.4256 3.64309 58.3466 3.65341 58.2726 3.68019C58.1986 3.70697 58.1313 3.74953 58.0756 3.80489C58.0199 3.86026 57.9771 3.92707 57.9502 4.00064C57.9233 4.07422 57.9127 4.15276 57.9196 4.23076V19.401H54.1883Z" fill="#242325"/>
<path d="M69.0122 19.3986V0.407959H72.7212V19.3986H69.0122Z" fill="#242325"/>
<path d="M0.00469144 19.4011V3.76172C-0.0196428 3.31526 0.0508833 2.86874 0.21172 2.45119C0.372557 2.03363 0.62009 1.6544 0.938172 1.33825C1.25625 1.02209 1.63773 0.776061 2.05783 0.616199C2.47793 0.456337 2.92724 0.386238 3.37642 0.410425H11.5248V3.65004H4.30921C4.23164 3.64492 4.15383 3.65652 4.08119 3.68406C4.00855 3.7116 3.94287 3.75441 3.88843 3.80958C3.834 3.86475 3.79207 3.93098 3.76578 4.0037C3.73948 4.07642 3.72936 4.15389 3.73601 4.23088V19.4011H0.00469144Z" fill="#242325"/>
<path d="M29.4286 19.401V3.7616C29.4043 3.31514 29.4748 2.86862 29.6357 2.45107C29.7965 2.03351 30.044 1.65428 30.3621 1.33813C30.6802 1.02197 31.0618 0.775939 31.4819 0.616077C31.902 0.456215 32.3512 0.386116 32.8004 0.410303H50.929V3.64991H33.7444C33.6659 3.64309 33.587 3.65341 33.513 3.68019C33.4389 3.70697 33.3717 3.74953 33.316 3.80489C33.2602 3.86026 33.2175 3.92707 33.1906 4.00064C33.1636 4.07422 33.1532 4.15276 33.1601 4.23076V19.401H29.4286Z" fill="#242325"/>
<path d="M50.9065 8.28357H32.1035V11.5232H50.9065V8.28357Z" fill="#242325"/>
<path d="M18.3917 11.713V9.93687H26.259V6.69725H18.3917V4.26199C18.3848 4.18399 18.3952 4.10545 18.4221 4.03187C18.4491 3.9583 18.492 3.89148 18.5477 3.83612C18.6034 3.78076 18.6705 3.73819 18.7445 3.71141C18.8186 3.68463 18.8976 3.67425 18.9761 3.68107H26.169V0.407983H18.0319C17.5828 0.383797 17.1336 0.453895 16.7135 0.613757C16.2934 0.77362 15.9118 1.01965 15.5937 1.33581C15.2756 1.65196 15.0281 2.03119 14.8672 2.44875C14.7064 2.8663 14.6359 3.31282 14.6602 3.75928V16.0474C14.6359 16.4938 14.7064 16.9404 14.8672 17.358C15.0281 17.7755 15.2756 18.1547 15.5937 18.4708C15.9118 18.787 16.2934 19.033 16.7135 19.1929C17.1336 19.3527 17.5828 19.4228 18.0319 19.3987H26.169V16.1479H18.9761C18.8976 16.1547 18.8186 16.1444 18.7445 16.1176C18.6705 16.0908 18.6034 16.0483 18.5477 15.993C18.492 15.9376 18.4491 15.8707 18.4221 15.7971C18.3952 15.7236 18.3848 15.6449 18.3917 15.5669V11.713Z" fill="#242325"/>
</svg>
