<svg width="90" height="20" viewBox="0 0 90 20" fill="none" xmlns="http://www.w3.org/2000/svg">
<g clip-path="url(#clip0_363_410)">
<path d="M53.9463 19.3907V0.424316H57.64V19.3907H53.9463Z" fill="black"/>
<path d="M3.58697e-05 19.3907V3.74714C-0.0190311 3.30571 0.0540061 2.86514 0.214493 2.45338C0.374981 2.04162 0.619438 1.66767 0.932331 1.35524C1.24522 1.04281 1.61972 0.798728 2.03209 0.638478C2.44446 0.478229 2.88569 0.405309 3.32777 0.424348H11.4346V3.67573H4.28277C4.20475 3.66863 4.12611 3.67875 4.05244 3.70537C3.97878 3.732 3.91187 3.77447 3.85647 3.82979C3.80108 3.8851 3.75855 3.9519 3.73189 4.02546C3.70522 4.09902 3.69509 4.17753 3.7022 4.25543V19.3781L3.58697e-05 19.3907Z" fill="black"/>
<path d="M29.3015 10.4641V3.74287C29.2825 3.30144 29.3555 2.86087 29.516 2.44911C29.6765 2.03735 29.921 1.6634 30.2338 1.35097C30.5467 1.03854 30.9212 0.794456 31.3336 0.634206C31.746 0.473956 32.1872 0.401037 32.6293 0.420076H50.6857V3.67146H33.5716C33.4936 3.66436 33.415 3.67448 33.3413 3.7011C33.2677 3.72772 33.2007 3.7702 33.1454 3.82551C33.09 3.88083 33.0474 3.94763 33.0208 4.02119C32.9941 4.09474 32.984 4.17326 32.9911 4.25116V10.4599L29.3015 10.4641Z" fill="black"/>
<path d="M32.9911 7.35974V15.5638C32.9839 15.6415 32.994 15.7199 33.0207 15.7933C33.0474 15.8667 33.09 15.9333 33.1455 15.9883C33.2009 16.0433 33.2679 16.0853 33.3416 16.1115C33.4153 16.1376 33.4938 16.1471 33.5716 16.1393H50.6857V19.3907H32.6293C32.1872 19.4097 31.746 19.3368 31.3336 19.1766C30.9212 19.0163 30.5467 18.7722 30.2338 18.4598C29.921 18.1474 29.6765 17.7734 29.516 17.3617C29.3555 16.9499 29.2825 16.5093 29.3015 16.0679V7.35974H32.9911Z" fill="black"/>
<path d="M18.313 8.13273V9.90965H26.0539V13.1442H18.313V15.5849C18.3058 15.6626 18.3159 15.741 18.3426 15.8144C18.3693 15.8877 18.4119 15.9543 18.4674 16.0093C18.5229 16.0643 18.5899 16.1064 18.6635 16.1325C18.7372 16.1586 18.8158 16.1681 18.8936 16.1604H26.0454V19.4117H17.9386C17.4965 19.4308 17.0553 19.3579 16.6429 19.1976C16.2305 19.0374 15.856 18.7933 15.5431 18.4809C15.2302 18.1684 14.9858 17.7945 14.8253 17.3827C14.6648 16.971 14.5918 16.5304 14.6109 16.0889V3.74714C14.5918 3.30571 14.6648 2.86514 14.8253 2.45338C14.9858 2.04162 15.2302 1.66767 15.5431 1.35524C15.856 1.04281 16.2305 0.798728 16.6429 0.638478C17.0553 0.478229 17.4965 0.405309 17.9386 0.424348H26.0454V3.67573H18.8936C18.8155 3.66863 18.7369 3.67875 18.6632 3.70537C18.5896 3.732 18.5227 3.77447 18.4673 3.82979C18.4119 3.8851 18.3693 3.9519 18.3427 4.02546C18.316 4.09902 18.3059 4.17753 18.313 4.25543V8.13273Z" fill="black"/>
<path d="M82.2592 11.7033V9.9306H89.9959V6.69182H82.2592V4.25538C82.2522 4.17786 82.2623 4.09975 82.2887 4.02652C82.3151 3.95329 82.3572 3.88672 82.4122 3.83148C82.4671 3.77624 82.5335 3.73367 82.6066 3.70676C82.6797 3.67984 82.7579 3.66924 82.8356 3.67568H89.9875V0.424301H81.8848C81.4426 0.404618 81.0011 0.477095 80.5884 0.637117C80.1757 0.797139 79.801 1.0412 79.4879 1.35376C79.1749 1.66633 78.9305 2.04054 78.7702 2.45259C78.61 2.86465 78.5374 3.3055 78.5571 3.74709V16.0679C78.5374 16.5095 78.61 16.9503 78.7702 17.3624C78.9305 17.7744 79.1749 18.1487 79.4879 18.4612C79.801 18.7738 80.1757 19.0179 80.5884 19.1779C81.0011 19.3379 81.4426 19.4104 81.8848 19.3907H89.9875V16.1393H82.8356C82.7581 16.1464 82.6801 16.1364 82.6069 16.11C82.5337 16.0836 82.4673 16.0414 82.4123 15.9865C82.3573 15.9316 82.3151 15.8652 82.2886 15.7922C82.2622 15.7191 82.2521 15.6412 82.2592 15.5638V11.7033Z" fill="black"/>
<path d="M64.35 12.8964V19.4034H61.0181V0.403349H72.5368C72.9052 0.401681 73.2703 0.472905 73.611 0.612912C73.9517 0.752919 74.2612 0.958935 74.5217 1.21906C74.7822 1.47918 74.9886 1.78826 75.1288 2.12844C75.269 2.46863 75.3403 2.83318 75.3387 3.20105V10.0987C75.3403 10.4666 75.269 10.8311 75.1288 11.1713C74.9886 11.5115 74.7822 11.8206 74.5217 12.0807C74.2612 12.3408 73.9517 12.5468 73.611 12.6868C73.2703 12.8268 72.9052 12.8981 72.5368 12.8964H64.35ZM72.0067 3.82696C72.0067 3.71555 71.9624 3.6087 71.8835 3.52992C71.8046 3.45114 71.6976 3.40689 71.586 3.40689H64.3668V9.91805H71.586C71.6976 9.91805 71.8046 9.8738 71.8835 9.79502C71.9624 9.71624 72.0067 9.60939 72.0067 9.49798V3.82696Z" fill="black"/>
</g>
<defs>
<clipPath id="clip0_363_410">
<rect width="90" height="19" fill="white" transform="translate(0 0.40332)"/>
</clipPath>
</defs>
</svg>
