<svg width="90" height="19" viewBox="0 0 90 19" fill="none" xmlns="http://www.w3.org/2000/svg">
<path d="M24.0611 18.4141V3.5802C24.038 3.15674 24.1049 2.73322 24.2575 2.33717C24.41 1.94112 24.6448 1.58142 24.9465 1.28155C25.2482 0.981683 25.61 0.748321 26.0085 0.596693C26.4069 0.445065 26.8331 0.378577 27.2592 0.401518H34.9771V3.47427H28.1546C28.0801 3.4678 28.0053 3.47758 27.935 3.50298C27.8648 3.52838 27.801 3.56875 27.7482 3.62127C27.6953 3.67378 27.6548 3.73715 27.6292 3.80694C27.6037 3.87672 27.5937 3.95122 27.6002 4.0252V18.4141H24.0611Z" fill="#F1F1E7"/>
<path d="M38.1216 18.412V0.399414H41.6395V18.412H38.1216Z" fill="#F1F1E7"/>
<path d="M44.7271 18.4121V0.406616H48.2245V18.4121H44.7271Z" fill="#F1F1E7"/>
<path d="M58.9076 8.8728V15.2535C58.9263 15.6727 58.8574 16.0912 58.7055 16.4824C58.5536 16.8736 58.3219 17.2288 58.0252 17.5256C57.7285 17.8223 57.3732 18.054 56.982 18.2059C56.5908 18.3578 56.1723 18.4266 55.7531 18.4079H44.7305V15.3213H54.8598C54.9338 15.328 55.0083 15.3184 55.0781 15.2931C55.1479 15.2679 55.2114 15.2275 55.2639 15.175C55.3164 15.1225 55.3567 15.0591 55.382 14.9893C55.4073 14.9194 55.4169 14.8449 55.4102 14.7709V8.8728H58.9076Z" fill="#F1F1E7"/>
<path d="M55.4111 11.8238V4.03941C55.4179 3.96545 55.4083 3.89092 55.383 3.82109C55.3577 3.75126 55.3174 3.68783 55.2648 3.63532C55.2123 3.58281 55.1489 3.54249 55.0791 3.51721C55.0092 3.49194 54.9348 3.48233 54.8608 3.48907H44.7314V0.402412H55.7541C56.1733 0.383727 56.5918 0.452535 56.983 0.60445C57.3742 0.756364 57.7294 0.988059 58.0262 1.28479C58.3229 1.58152 58.5546 1.93678 58.7065 2.32795C58.8584 2.71912 58.9272 3.13764 58.9086 3.55686V11.8238H55.4111Z" fill="#F1F1E7"/>
<path d="M0.576715 18.4141V3.5802C0.553635 3.15674 0.620528 2.73322 0.773081 2.33717C0.925633 1.94112 1.16042 1.58142 1.46212 1.28155C1.76382 0.981683 2.12564 0.748321 2.5241 0.596693C2.92257 0.445065 3.34874 0.378577 3.77478 0.401518H11.5034V3.47427H4.65953C4.58595 3.46942 4.51215 3.48042 4.44325 3.50654C4.37436 3.53267 4.31205 3.57327 4.26042 3.6256C4.20879 3.67793 4.16903 3.74074 4.14409 3.80972C4.11914 3.87869 4.10954 3.95217 4.11585 4.0252V18.4141H0.576715Z" fill="#F1F1E7"/>
<path d="M0.576715 18.4143V3.58044C0.553635 3.15698 0.620528 2.73346 0.773081 2.33741C0.925633 1.94137 1.16042 1.58167 1.46212 1.2818C1.76382 0.981927 2.12577 0.748565 2.52423 0.596937C2.9227 0.445309 3.34874 0.378821 3.77478 0.401762H20.9697V3.47451H4.6702C4.59577 3.46804 4.52088 3.47783 4.45067 3.50323C4.38046 3.52863 4.31664 3.569 4.2638 3.62151C4.21097 3.67402 4.17042 3.73739 4.14487 3.80718C4.11931 3.87697 4.10947 3.95146 4.11598 4.02544V18.4143H0.576715Z" fill="#F1F1E7"/>
<path d="M20.9483 7.86914H3.11377V10.9419H20.9483V7.86914Z" fill="#F1F1E7"/>
<path d="M82.2322 11.1221V9.43741H89.6943V6.36466H82.2322V4.05482C82.2257 3.98084 82.2355 3.90634 82.2611 3.83656C82.2866 3.76677 82.3273 3.7034 82.3801 3.65089C82.433 3.59838 82.4967 3.55801 82.5669 3.53261C82.6371 3.50721 82.7121 3.49736 82.7865 3.50383H89.609V0.39932H81.891C81.4649 0.376379 81.0389 0.442868 80.6404 0.594496C80.242 0.746124 79.88 0.979486 79.5783 1.27936C79.2766 1.57923 79.0418 1.93892 78.8893 2.33497C78.7367 2.73102 78.6698 3.15454 78.6929 3.578V15.2332C78.6698 15.6566 78.7367 16.0802 78.8893 16.4763C79.0418 16.8723 79.2766 17.232 79.5783 17.5318C79.88 17.8317 80.242 18.0651 80.6404 18.2167C81.0389 18.3683 81.4649 18.4348 81.891 18.4119H89.609V15.3285H82.7865C82.7121 15.335 82.6371 15.3252 82.5669 15.2998C82.4967 15.2744 82.433 15.2341 82.3801 15.1816C82.3273 15.1291 82.2866 15.0656 82.2611 14.9958C82.2355 14.9261 82.2257 14.8515 82.2322 14.7775V11.1221Z" fill="#F1F1E7"/>
</svg>
