<svg width="67" height="67" viewBox="0 0 67 67" fill="none" xmlns="http://www.w3.org/2000/svg">
<rect x="0.488281" y="0.257324" width="65.8706" height="65.8706" rx="32.9353" fill="#9A8266"/>
<path d="M21.0493 33.23L22.4502 35.9808C22.6837 36.4393 23.0339 36.6685 23.5009 36.6685H43.3468C43.8137 36.6685 44.1639 36.4393 44.3974 35.9808L45.7983 33.23H21.0493Z" stroke="#FCFDE0" stroke-width="1.2"/>
<path d="M18.831 30.9375H20.4653H46.3817H48.0161C48.7166 30.9375 49.1835 30.479 49.1835 29.7913C49.1835 29.1036 48.7166 28.6452 48.0161 28.6452H46.8487C46.6152 22.5704 42.0623 17.5272 36.2253 16.2664C36.2253 16.0372 36.3421 15.8079 36.3421 15.4641C36.3421 13.8594 35.0579 12.5986 33.4235 12.5986C31.7892 12.5986 30.505 13.8594 30.505 15.4641C30.505 15.8079 30.6218 16.0372 30.6218 16.2664C24.7847 17.5272 20.3486 22.5704 19.9984 28.6452H18.831C18.1305 28.6452 17.6636 29.1036 17.6636 29.7913C17.6636 30.479 18.1305 30.9375 18.831 30.9375Z" stroke="#FCFDE0" stroke-width="1.2"/>
<path d="M45.7015 39.3941C45.5543 39.105 45.1126 38.9604 44.8181 38.9604C44.2291 38.9604 43.7874 38.9604 43.1985 39.105L41.5789 41.2734C39.9592 43.4418 37.309 44.7429 34.5114 44.7429H34.0697H33.0391H31.125H30.0943C29.2109 44.7429 28.6219 44.1646 28.6219 43.2973C28.6219 42.4299 29.2109 41.8517 30.0943 41.8517H35.2476C35.6893 41.418 35.9838 40.6952 35.9838 39.9724V39.8278C35.9838 39.2496 35.5421 38.9604 34.9531 38.9604H29.0636C25.5299 38.9604 22.7324 40.5506 21.1128 43.0082L18.4625 47.0559C18.3152 47.345 18.3152 47.7787 18.4625 48.0678L21.4072 52.8383C21.5545 53.1274 21.7017 53.272 21.9962 53.272H22.1434C22.2907 53.272 22.5851 53.272 22.7324 53.1274C26.4133 50.6699 30.8305 49.3688 35.2476 49.3688C38.4869 49.3688 41.4316 47.6341 42.904 44.8875L45.5543 40.2615C45.8488 40.1169 45.8488 39.6833 45.7015 39.3941Z" stroke="#FCFDE0" stroke-width="1.2"/>
</svg>
