<svg width="41" height="41" viewBox="0 0 41 41" fill="none" xmlns="http://www.w3.org/2000/svg">
<rect x="0.0698242" y="0.774658" width="40" height="40" rx="20" fill="#9A8266"/>
<path d="M11.46 30.4605C11.1746 30.4605 10.9008 30.3471 10.699 30.1453C10.4972 29.9434 10.3838 29.6697 10.3838 29.3843V12.1651C10.3838 11.8796 10.4972 11.6059 10.699 11.4041C10.9008 11.2023 11.1746 11.0889 11.46 11.0889C11.7454 11.0889 12.0192 11.2023 12.221 11.4041C12.4228 11.6059 12.5362 11.8796 12.5362 12.1651V29.3843C12.5362 29.6697 12.4228 29.9434 12.221 30.1453C12.0192 30.3471 11.7454 30.4605 11.46 30.4605Z" fill="white"/>
<path d="M15.7647 30.4605C15.4793 30.4605 15.2055 30.3471 15.0037 30.1453C14.8019 29.9434 14.6885 29.6697 14.6885 29.3843V12.1651C14.6885 11.8796 14.8019 11.6059 15.0037 11.4041C15.2055 11.2023 15.4793 11.0889 15.7647 11.0889C16.0501 11.0889 16.3238 11.2023 16.5257 11.4041C16.7275 11.6059 16.8409 11.8796 16.8409 12.1651V29.3843C16.8409 29.6697 16.7275 29.9434 16.5257 30.1453C16.3238 30.3471 16.0501 30.4605 15.7647 30.4605Z" fill="white"/>
<path d="M20.0694 30.4605C19.7839 30.4605 19.5102 30.3471 19.3084 30.1453C19.1065 29.9434 18.9932 29.6697 18.9932 29.3843V12.1651C18.9932 11.8796 19.1065 11.6059 19.3084 11.4041C19.5102 11.2023 19.7839 11.0889 20.0694 11.0889C20.3548 11.0889 20.6285 11.2023 20.8304 11.4041C21.0322 11.6059 21.1456 11.8796 21.1456 12.1651V29.3843C21.1456 29.6697 21.0322 29.9434 20.8304 30.1453C20.6285 30.3471 20.3548 30.4605 20.0694 30.4605Z" fill="white"/>
<path d="M24.3745 30.4605C24.0891 30.4605 23.8154 30.3471 23.6136 30.1453C23.4117 29.9434 23.2983 29.6697 23.2983 29.3843V12.1651C23.2983 11.8796 23.4117 11.6059 23.6136 11.4041C23.8154 11.2023 24.0891 11.0889 24.3745 11.0889C24.66 11.0889 24.9337 11.2023 25.1355 11.4041C25.3374 11.6059 25.4507 11.8796 25.4507 12.1651V29.3843C25.4507 29.6697 25.3374 29.9434 25.1355 30.1453C24.9337 30.3471 24.66 30.4605 24.3745 30.4605Z" fill="white"/>
<path d="M28.6792 30.4605C28.3938 30.4605 28.1201 30.3471 27.9182 30.1453C27.7164 29.9434 27.603 29.6697 27.603 29.3843V12.1651C27.603 11.8796 27.7164 11.6059 27.9182 11.4041C28.1201 11.2023 28.3938 11.0889 28.6792 11.0889C28.9647 11.0889 29.2384 11.2023 29.4402 11.4041C29.642 11.6059 29.7554 11.8796 29.7554 12.1651V29.3843C29.7554 29.6697 29.642 29.9434 29.4402 30.1453C29.2384 30.3471 28.9647 30.4605 28.6792 30.4605Z" fill="white"/>
</svg>
