<svg width="18" height="19" viewBox="0 0 18 19" fill="none" xmlns="http://www.w3.org/2000/svg">
<path d="M17.6499 14.8688C17.6499 15.2632 17.3302 15.5829 16.9358 15.5829H1.36396C0.969598 15.5829 0.649902 15.2632 0.649902 14.8688V14.6403C0.649902 14.2459 0.969598 13.9262 1.36396 13.9262H1.4999V8.15344C1.4999 4.02163 4.9254 0.672607 9.1499 0.672607C13.3744 0.672607 16.7999 4.02163 16.7999 8.15344V13.9262H16.9358C17.3302 13.9262 17.6499 14.2459 17.6499 14.6403V14.8688ZM15.0999 13.9262V8.15344C15.0999 4.93695 12.436 2.32931 9.1499 2.32931C5.8638 2.32931 3.1999 4.93695 3.1999 8.15344V13.9262H15.0999ZM7.14973 17.1106C7.01348 16.7405 7.3446 16.4113 7.73896 16.4113H10.5608C10.9552 16.4113 11.2863 16.7405 11.1501 17.1106C11.0452 17.3956 10.8764 17.6574 10.6525 17.8756C10.254 18.264 9.71349 18.4821 9.1499 18.4821C8.58632 18.4821 8.04582 18.264 7.6473 17.8756C7.42342 17.6574 7.25465 17.3956 7.14973 17.1106Z" fill="#242325"/>
<path d="M17.6499 14.8688C17.6499 15.2632 17.3302 15.5829 16.9358 15.5829H1.36396C0.969598 15.5829 0.649902 15.2632 0.649902 14.8688V14.6403C0.649902 14.2459 0.969598 13.9262 1.36396 13.9262H1.4999V8.15344C1.4999 4.02163 4.9254 0.672607 9.1499 0.672607C13.3744 0.672607 16.7999 4.02163 16.7999 8.15344V13.9262H16.9358C17.3302 13.9262 17.6499 14.2459 17.6499 14.6403V14.8688ZM15.0999 13.9262V8.15344C15.0999 4.93695 12.436 2.32931 9.1499 2.32931C5.8638 2.32931 3.1999 4.93695 3.1999 8.15344V13.9262H15.0999ZM7.14973 17.1106C7.01348 16.7405 7.3446 16.4113 7.73896 16.4113H10.5608C10.9552 16.4113 11.2863 16.7405 11.1501 17.1106C11.0452 17.3956 10.8764 17.6574 10.6525 17.8756C10.254 18.264 9.71349 18.4821 9.1499 18.4821C8.58632 18.4821 8.04582 18.264 7.6473 17.8756C7.42342 17.6574 7.25465 17.3956 7.14973 17.1106Z" stroke="#242325"/>
</svg>
