<svg width="40" height="41" viewBox="0 0 40 41" fill="none" xmlns="http://www.w3.org/2000/svg">
<rect x="0.67041" y="0.0512695" width="38.75" height="40" rx="19.375" fill="#55BB96"/>
<path d="M14.1951 14.1304C11.4923 15.8742 9.74854 18.6642 9.74854 21.5414C9.74854 26.1623 14.4567 29.0395 20.2111 29.0395C25.9655 29.0395 30.6736 26.1623 30.6736 21.5414C30.6736 18.7514 28.9299 15.9614 26.227 14.1304C24.2217 12.8226 22.3036 11.3404 20.7342 9.50946L20.2111 8.98633" stroke="white" stroke-width="1.5" stroke-miterlimit="10" stroke-linecap="round" stroke-linejoin="round"/>
<path d="M20.5596 9.59664L20.2109 8.98633L19.8621 9.59664C18.8159 11.3404 17.508 12.8226 16.2002 14.2176C14.3693 15.9614 13.2358 18.7514 13.2358 21.6286C13.2358 26.2495 16.3746 29.1267 20.2109 29.1267C24.0471 29.1267 27.1859 26.2495 27.1859 21.6286C27.1859 18.8386 26.0525 16.0485 24.2215 14.2176C22.9137 12.8226 21.6059 11.3404 20.5596 9.59664Z" stroke="white" stroke-width="1.5" stroke-miterlimit="10" stroke-linecap="round" stroke-linejoin="round"/>
<path d="M20.298 9.59664L20.2109 8.98633L20.1237 9.59664C19.6877 11.3404 19.2518 12.8226 18.7287 14.2176C18.0312 15.9614 17.5952 18.7514 17.5952 21.6286C17.5952 26.2495 18.7287 29.1267 20.2109 29.1267C21.693 29.1267 22.8265 26.2495 22.8265 21.6286C22.8265 18.8386 22.3905 16.0485 21.693 14.2176C21.1699 12.8226 20.734 11.3404 20.298 9.59664Z" stroke="white" stroke-width="1.5" stroke-miterlimit="10" stroke-linecap="round" stroke-linejoin="round"/>
<path d="M20.2109 32.5271V29.0396" stroke="white" stroke-width="1.5" stroke-miterlimit="10" stroke-linecap="round" stroke-linejoin="round"/>
<path d="M22.8266 31.6552L20.2109 29.0396" stroke="white" stroke-width="1.5" stroke-miterlimit="10" stroke-linecap="round" stroke-linejoin="round"/>
<path d="M17.5952 31.6552L20.2109 29.0396" stroke="white" stroke-width="1.5" stroke-miterlimit="10" stroke-linecap="round" stroke-linejoin="round"/>
</svg>
