<svg width="51" height="50" viewBox="0 0 51 50" fill="none" xmlns="http://www.w3.org/2000/svg">
<ellipse cx="25.5201" cy="25.0182" rx="24.96" ry="24.8621" fill="#242325"/>
<path d="M35.1076 24.2088H26.3326V15.4682C26.3326 15.0213 25.9689 14.6589 25.5201 14.6589C25.0714 14.6589 24.7076 15.0213 24.7076 15.4682V24.2088H15.9326C15.4839 24.2088 15.1201 24.5711 15.1201 25.0181C15.1201 25.4651 15.4839 25.8274 15.9326 25.8274H24.7076V34.568C24.7076 35.015 25.0714 35.3773 25.5201 35.3773C25.9689 35.3773 26.3326 35.015 26.3326 34.568V25.8274H35.1076C35.5564 25.8274 35.9201 25.4651 35.9201 25.0181C35.9201 24.5711 35.5564 24.2088 35.1076 24.2088Z" fill="#F1F1E7"/>
</svg>
