<svg width="18" height="19" viewBox="0 0 18 19" fill="none" xmlns="http://www.w3.org/2000/svg">
<path d="M8.86951 8.98427C10.9912 8.98427 12.7112 7.27104 12.7112 5.15766C12.7112 3.04428 10.9912 1.33105 8.86951 1.33105C6.74781 1.33105 5.02783 3.04428 5.02783 5.15766C5.02783 7.27104 6.74781 8.98427 8.86951 8.98427Z" stroke="#8D8D8D" stroke-width="1.5"/>
<path d="M16.5468 14.6878L15.9089 14.7424L16.5468 14.6878ZM1.19256 14.6878L1.8305 14.7423L1.19256 14.6878ZM15.8847 16.0863L16.2226 16.628L15.8847 16.0863ZM1.85464 16.0863L2.1925 15.5445L1.85464 16.0863ZM15.776 12.2059L16.3496 11.9227L15.776 12.2059ZM15.5469 15.5445C14.6337 16.1095 12.5587 17.0555 8.86969 17.0555V18.3311C12.7917 18.3311 15.1017 17.3215 16.2226 16.628L15.5469 15.5445ZM8.86969 17.0555C5.18071 17.0555 3.10572 16.1095 2.1925 15.5445L1.51678 16.628C2.63768 17.3215 4.94768 18.3311 8.86969 18.3311V17.0555ZM0.554622 14.6333C0.488545 15.4001 0.808577 16.1898 1.51678 16.628L2.1925 15.5445C1.94888 15.3937 1.79977 15.0989 1.8305 14.7423L0.554622 14.6333ZM15.9089 14.7424C15.9396 15.0989 15.7905 15.3937 15.5469 15.5445L16.2226 16.628C16.9308 16.1898 17.2508 15.4001 17.1848 14.6333L15.9089 14.7424ZM15.2023 12.4892C15.5097 13.1068 15.8398 13.9404 15.9089 14.7424L17.1848 14.6333C17.0955 13.5976 16.6848 12.596 16.3496 11.9227L15.2023 12.4892ZM1.8305 14.7423C1.8996 13.9404 2.22972 13.1068 2.53706 12.4892L1.38973 11.9227C1.05464 12.596 0.643871 13.5976 0.554622 14.6333L1.8305 14.7423ZM14.2454 10.6779H3.49393V11.9534H14.2454V10.6779ZM2.53706 12.4892C2.69731 12.1672 3.05554 11.9534 3.49393 11.9534V10.6779C2.6489 10.6779 1.79948 11.0993 1.38973 11.9227L2.53706 12.4892ZM16.3496 11.9227C15.9399 11.0993 15.0905 10.6779 14.2454 10.6779V11.9534C14.6838 11.9534 15.0421 12.1672 15.2023 12.4892L16.3496 11.9227Z" fill="#8D8D8D" stroke="#8D8D8D" stroke-width="0.2"/>
</svg>
