<svg width="20" height="16" viewBox="0 0 20 16" fill="none" xmlns="http://www.w3.org/2000/svg">
<path d="M0.449707 14.5417C0.449707 15.0154 0.766741 15.3311 1.24229 15.3311H18.6792C19.1547 15.3311 19.4718 15.0154 19.4718 14.5417V13.7522H0.449707V14.5417Z" fill="#8D8D8D"/>
<path d="M17.8866 12.1732H19.4718C19.4718 7.19949 15.6674 3.17317 10.7533 2.77843V1.91001H11.5459C12.0215 1.91001 12.3385 1.59422 12.3385 1.12053C12.3385 0.646845 12.0215 0.331055 11.5459 0.331055H8.37557C7.90001 0.331055 7.58298 0.646845 7.58298 1.12053C7.58298 1.59422 7.90001 1.91001 8.37557 1.91001H9.16815V2.77843C4.25412 3.17317 0.449707 7.19949 0.449707 12.1732H2.03488H17.8866ZM9.96074 4.27843C13.7652 4.27843 17.0148 6.96265 17.7281 10.5942H2.1934C2.90672 6.96265 6.15633 4.27843 9.96074 4.27843Z" fill="#8D8D8D"/>
</svg>
