<svg width="17" height="19" viewBox="0 0 17 19" fill="none" xmlns="http://www.w3.org/2000/svg">
<path d="M14.0223 18.2921H10.9292C10.6949 18.2921 10.4701 18.1993 10.3043 18.0343C10.1386 17.8692 10.0455 17.6453 10.0455 17.4118C10.0455 17.1784 10.1386 16.9545 10.3043 16.7894C10.4701 16.6243 10.6949 16.5315 10.9292 16.5315H14.0223C14.2567 16.5315 14.4815 16.4388 14.6472 16.2737C14.813 16.1086 14.9061 15.8847 14.9061 15.6513V3.32746C14.9061 3.094 14.813 2.8701 14.6472 2.70502C14.4815 2.53993 14.2567 2.44719 14.0223 2.44719H3.41746C3.18307 2.44719 2.95829 2.53993 2.79256 2.70502C2.62682 2.8701 2.53372 3.094 2.53372 3.32746V15.6513C2.53372 15.8847 2.62682 16.1086 2.79256 16.2737C2.95829 16.4388 3.18307 16.5315 3.41746 16.5315H7.83616C8.07054 16.5315 8.29532 16.6243 8.46105 16.7894C8.62679 16.9545 8.7199 17.1784 8.7199 17.4118C8.7199 17.6453 8.62679 17.8692 8.46105 18.0343C8.29532 18.1993 8.07054 18.2921 7.83616 18.2921H3.41746C2.71431 18.2921 2.03996 18.0139 1.54276 17.5186C1.04556 17.0234 0.766235 16.3517 0.766235 15.6513V3.32746C0.766235 2.62707 1.04556 1.95537 1.54276 1.46012C2.03996 0.964874 2.71431 0.686646 3.41746 0.686646H14.0223C14.7255 0.686646 15.3998 0.964874 15.897 1.46012C16.3942 1.95537 16.6736 2.62707 16.6736 3.32746V15.6513C16.6736 16.3517 16.3942 17.0234 15.897 17.5186C15.3998 18.0139 14.7255 18.2921 14.0223 18.2921Z" fill="#8D8D8D"/>
<path d="M7.8365 18.2921C7.60212 18.2921 7.37733 18.1993 7.2116 18.0343C7.04587 17.8692 6.95276 17.6453 6.95276 17.4118V1.56692C6.95276 1.33345 7.04587 1.10955 7.2116 0.944471C7.37733 0.779388 7.60212 0.686646 7.8365 0.686646C8.07088 0.686646 8.29566 0.779388 8.4614 0.944471C8.62713 1.10955 8.72024 1.33345 8.72024 1.56692V17.4118C8.72024 17.6453 8.62713 17.8692 8.4614 18.0343C8.29566 18.1993 8.07088 18.2921 7.8365 18.2921Z" fill="#8D8D8D"/>
<path d="M11.3709 11.2498C11.1365 11.2498 10.9118 11.1571 10.746 10.992C10.5803 10.8269 10.4872 10.603 10.4872 10.3696V8.60903C10.4872 8.37557 10.5803 8.15167 10.746 7.98659C10.9118 7.8215 11.1365 7.72876 11.3709 7.72876C11.6053 7.72876 11.8301 7.8215 11.9958 7.98659C12.1616 8.15167 12.2547 8.37557 12.2547 8.60903V10.3696C12.2547 10.603 12.1616 10.8269 11.9958 10.992C11.8301 11.1571 11.6053 11.2498 11.3709 11.2498Z" fill="#8D8D8D"/>
</svg>
