<svg width="40" height="41" viewBox="0 0 40 41" fill="none" xmlns="http://www.w3.org/2000/svg">
<rect y="0.656738" width="40" height="40" rx="20" fill="#8D8D8D"/>
<path d="M19.9999 6.32983C19.7353 6.32983 19.5205 6.55091 19.5205 6.82331V9.2907C19.5205 9.5631 19.7353 9.78417 19.9999 9.78417C20.2645 9.78417 20.4793 9.5631 20.4793 9.2907V6.82331C20.4793 6.55091 20.2645 6.32983 19.9999 6.32983Z" fill="white"/>
<path d="M24.3143 12.2515C24.3143 11.8997 24.3143 11.5646 24.3143 11.2937C24.3115 10.213 23.4472 9.34986 22.3968 9.34888H17.6031C16.5527 9.34986 15.6884 10.213 15.6855 11.2937C15.6855 11.5651 15.6855 11.9002 15.6855 12.2515H24.3143Z" fill="white"/>
<path d="M14.5117 13.2385C14.3463 13.5287 14.248 13.8643 14.2476 14.2255V31.0037C14.2495 32.0928 15.1071 32.9756 16.1651 32.9776H23.8351C24.8931 32.9756 25.7507 32.0928 25.7526 31.0037V14.2255C25.7521 13.8643 25.6539 13.5287 25.4885 13.2385H14.5117ZM17.1238 30.5102C17.1238 30.7831 16.9091 31.0037 16.6444 31.0037C16.3798 31.0037 16.1651 30.7831 16.1651 30.5102V14.719C16.1651 14.4466 16.3798 14.2255 16.6444 14.2255C16.9091 14.2255 17.1238 14.4466 17.1238 14.719V30.5102Z" fill="white"/>
</svg>
