<svg width="41" height="41" viewBox="0 0 41 41" fill="none" xmlns="http://www.w3.org/2000/svg">
<rect x="0.859375" y="0.660156" width="40" height="40" rx="20" fill="#FFAE68"/>
<path d="M27.3809 11.0805H21.4091C20.082 11.0805 18.9209 10.5828 18.0085 9.67045C17.6768 9.33869 17.1791 9.33869 16.8473 9.67045C16.5156 10.0022 16.5156 10.4999 16.8473 10.8316C18.0915 12.0757 19.6673 12.7393 21.4091 12.7393H27.3809C28.4591 12.7393 29.3714 13.4028 29.7032 14.3981H19.0038C17.0132 14.3981 15.1056 14.9787 13.6126 15.974C13.5297 16.8034 13.6126 17.7157 13.8615 18.711C14.4421 20.7845 15.8521 22.5263 17.7597 23.5216H17.8426H23.2338C27.7956 23.5216 31.5279 19.7893 31.5279 15.2275C31.5279 12.9052 29.7032 11.0805 27.3809 11.0805ZM26.5514 18.5451C26.5514 19.0428 26.2197 19.3745 25.722 19.3745C25.2244 19.3745 24.8926 19.0428 24.8926 18.5451V16.8863C24.8926 16.3887 25.2244 16.0569 25.722 16.0569C26.2197 16.0569 26.5514 16.3887 26.5514 16.8863V18.5451Z" fill="white"/>
<path d="M17.4278 25.844C17.2619 25.7611 17.096 25.6781 17.0131 25.5122C16.7643 25.2634 16.6813 25.0146 16.6813 24.6828C14.6078 23.4387 13.0319 21.5311 12.4513 19.1258C12.2855 18.5452 12.2025 17.8817 12.1196 17.384C11.2902 18.2964 10.7096 19.3746 10.4608 20.6187C9.79723 23.3558 10.3778 25.927 11.9537 28.0005C13.2808 29.7422 15.2713 30.7375 17.5107 30.9864V25.844H17.4278Z" fill="white"/>
<path d="M25.3899 26.0099C23.5652 24.9317 21.3258 24.7658 19.4182 25.5123L19.0864 25.5952V30.7375H19.1694C20.0817 30.4058 20.9941 30.6546 21.7405 31.2352C22.3211 31.6499 22.9847 31.8987 23.7311 31.8987C24.0629 31.8987 24.3117 31.8158 24.6435 31.7328C25.6388 31.4011 26.4682 30.6546 26.717 29.6593C27.2146 28.3323 26.6341 26.7564 25.3899 26.0099Z" fill="white"/>
</svg>
