<svg width="41" height="41" viewBox="0 0 41 41" fill="none" xmlns="http://www.w3.org/2000/svg">
<rect x="0.859375" y="0.660156" width="40" height="40" rx="20" fill="#FFAE68"/>
<path d="M18.4073 9.81177C9.1383 9.81177 8.48047 17.0476 8.48047 19.2004V22.8108C8.48047 24.9636 10.095 29.5085 16.0751 29.5085C20.7394 29.5085 21.5169 26.0998 26.241 26.0998C28.1546 26.0998 28.9321 26.9968 30.7859 26.9968C32.6397 26.9968 33.2377 25.5018 33.2377 24.1264V20.516C33.2377 15.9114 27.6763 9.81177 18.4073 9.81177ZM22.0873 12.3935C22.1592 12.3217 22.2444 12.2647 22.3383 12.2258C22.4322 12.1869 22.5328 12.1669 22.6344 12.1669C22.736 12.1669 22.8366 12.1869 22.9304 12.2258C23.0243 12.2647 23.1096 12.3217 23.1814 12.3935L29.5641 18.7763C29.6359 18.8481 29.6929 18.9334 29.7318 19.0272C29.7706 19.1211 29.7907 19.2217 29.7907 19.3233C29.7907 19.4249 29.7706 19.5255 29.7318 19.6193C29.6929 19.7132 29.6359 19.7985 29.5641 19.8703C29.4922 19.9421 29.407 19.9991 29.3131 20.038C29.2192 20.0769 29.1187 20.0969 29.0171 20.0969C28.9155 20.0969 28.8149 20.0769 28.721 20.038C28.6272 19.9991 28.5419 19.9421 28.47 19.8703L22.0873 13.4876C22.0155 13.4157 21.9585 13.3305 21.9196 13.2366C21.8807 13.1427 21.8607 13.0421 21.8607 12.9405C21.8607 12.839 21.8807 12.7384 21.9196 12.6445C21.9585 12.5506 22.0155 12.4654 22.0873 12.3935ZM14.3875 12.4152C14.4593 12.3433 14.5446 12.2863 14.6384 12.2474C14.7323 12.2085 14.8329 12.1885 14.9345 12.1885C15.0361 12.1885 15.1367 12.2085 15.2305 12.2474C15.3244 12.2863 15.4097 12.3433 15.4815 12.4152L22.3196 19.2535C22.3914 19.3253 22.4484 19.4106 22.4873 19.5045C22.5261 19.5983 22.5461 19.6989 22.5461 19.8005C22.5461 19.9021 22.5261 20.0027 22.4873 20.0966C22.4484 20.1904 22.3914 20.2757 22.3196 20.3475C22.2477 20.4194 22.1625 20.4764 22.0686 20.5152C21.9747 20.5541 21.8741 20.5741 21.7725 20.5741C21.671 20.5741 21.5704 20.5541 21.4765 20.5152C21.3826 20.4764 21.2974 20.4194 21.2255 20.3475L14.3875 13.5092C14.3156 13.4374 14.2586 13.3521 14.2197 13.2583C14.1808 13.1644 14.1608 13.0638 14.1608 12.9622C14.1608 12.8606 14.1808 12.76 14.2197 12.6662C14.2586 12.5723 14.3156 12.487 14.3875 12.4152ZM11.1085 16.8575C11.1803 16.7856 11.2656 16.7286 11.3594 16.6897C11.4533 16.6508 11.5539 16.6308 11.6555 16.6308C11.7571 16.6308 11.8577 16.6508 11.9515 16.6897C12.0454 16.7286 12.1307 16.7856 12.2025 16.8575L17.0852 21.7407C17.2303 21.8858 17.3118 22.0826 17.3118 22.2877C17.3118 22.4929 17.2303 22.6897 17.0852 22.8348C16.9402 22.9798 16.7434 23.0613 16.5382 23.0613C16.3331 23.0613 16.1363 22.9798 15.9912 22.8348L11.1085 17.9515C11.0366 17.8797 10.9796 17.7944 10.9407 17.7006C10.9018 17.6067 10.8818 17.5061 10.8818 17.4045C10.8818 17.3029 10.9018 17.2023 10.9407 17.1084C10.9796 17.0146 11.0366 16.9293 11.1085 16.8575ZM31.2711 24.1305C31.1102 24.1504 30.9482 24.1603 30.786 24.1602C29.7394 24.1602 28.9773 23.9031 28.3044 23.6764C27.6742 23.4638 27.0789 23.2631 26.2413 23.2631C24.0925 23.2631 22.8484 24.038 21.5313 24.8586C20.1008 25.7498 18.621 26.6716 16.0748 26.6716C13.5327 26.6716 11.4751 25.914 9.95955 24.4203C9.88672 24.3491 9.82867 24.2643 9.78873 24.1706C9.74878 24.0769 9.72773 23.9762 9.72678 23.8744C9.72583 23.7726 9.745 23.6715 9.78319 23.5771C9.82138 23.4827 9.87783 23.3967 9.94932 23.3242C10.0208 23.2517 10.1059 23.1939 10.1998 23.1544C10.2936 23.1148 10.3943 23.0941 10.4962 23.0936C10.598 23.093 10.699 23.1126 10.7932 23.1512C10.8875 23.1897 10.9732 23.2465 11.0455 23.3183C12.2614 24.5166 13.9533 25.1243 16.0748 25.1243C18.1782 25.1243 19.4097 24.3572 20.7133 23.5452C22.0898 22.6877 23.6503 21.7158 26.2412 21.7158C27.3322 21.7158 28.1114 21.9785 28.799 22.2102C29.4397 22.4263 29.9932 22.6129 30.786 22.6129C30.8839 22.6131 30.9816 22.6072 31.0787 22.5953C31.2823 22.5697 31.4876 22.6261 31.6496 22.7521C31.8116 22.878 31.917 23.0631 31.9425 23.2667C31.968 23.4703 31.9116 23.6756 31.7857 23.8376C31.6598 23.9996 31.4747 24.105 31.2711 24.1305L31.2711 24.1305Z" fill="white"/>
</svg>
