<svg width="25" height="25" viewBox="0 0 25 25" fill="none" xmlns="http://www.w3.org/2000/svg">
<g clip-path="url(#clip0_42_1314)">
<path d="M16.4101 5.15369H3.87012C3.4559 5.15369 3.12012 5.48947 3.12012 5.90369C3.12012 6.3179 3.4559 6.65369 3.87012 6.65369H16.4101C16.8243 6.65369 17.1601 6.3179 17.1601 5.90369C17.1601 5.48947 16.8243 5.15369 16.4101 5.15369Z" fill="#242325"/>
<path d="M16.4101 9.65369H3.87012C3.4559 9.65369 3.12012 9.98947 3.12012 10.4037C3.12012 10.8179 3.4559 11.1537 3.87012 11.1537H16.4101C16.8243 11.1537 17.1601 10.8179 17.1601 10.4037C17.1601 9.98947 16.8243 9.65369 16.4101 9.65369Z" fill="#242325"/>
<path d="M16.4101 14.1537H3.87012C3.4559 14.1537 3.12012 14.4895 3.12012 14.9037C3.12012 15.3179 3.4559 15.6537 3.87012 15.6537H16.4101C16.8243 15.6537 17.1601 15.3179 17.1601 14.9037C17.1601 14.4895 16.8243 14.1537 16.4101 14.1537Z" fill="#242325"/>
<path d="M16.4101 18.6537H3.87012C3.4559 18.6537 3.12012 18.9895 3.12012 19.4037C3.12012 19.8179 3.4559 20.1537 3.87012 20.1537H16.4101C16.8243 20.1537 17.1601 19.8179 17.1601 19.4037C17.1601 18.9895 16.8243 18.6537 16.4101 18.6537Z" fill="#242325"/>
<path d="M21.09 5.15369H21.03C20.6158 5.15369 20.28 5.48947 20.28 5.90369C20.28 6.3179 20.6158 6.65369 21.03 6.65369H21.09C21.5042 6.65369 21.84 6.3179 21.84 5.90369C21.84 5.48947 21.5042 5.15369 21.09 5.15369Z" fill="#242325"/>
<path d="M21.0898 9.65369H21.0298C20.6156 9.65369 20.2798 9.98947 20.2798 10.4037C20.2798 10.8179 20.6156 11.1537 21.0298 11.1537H21.0898C21.504 11.1537 21.8398 10.8179 21.8398 10.4037C21.8398 9.98947 21.504 9.65369 21.0898 9.65369Z" fill="#242325"/>
<path d="M21.09 14.1537H21.03C20.6158 14.1537 20.28 14.4895 20.28 14.9037C20.28 15.3179 20.6158 15.6537 21.03 15.6537H21.09C21.5042 15.6537 21.84 15.3179 21.84 14.9037C21.84 14.4895 21.5042 14.1537 21.09 14.1537Z" fill="#242325"/>
<path d="M21.09 18.6537H21.03C20.6158 18.6537 20.28 18.9895 20.28 19.4037C20.28 19.8179 20.6158 20.1537 21.03 20.1537H21.09C21.5042 20.1537 21.84 19.8179 21.84 19.4037C21.84 18.9895 21.5042 18.6537 21.09 18.6537Z" fill="#242325"/>
</g>
<defs>
<clipPath id="clip0_42_1314">
<rect width="24.96" height="24" fill="white" transform="translate(0 0.653687)"/>
</clipPath>
</defs>
</svg>
