<svg width="25" height="25" viewBox="0 0 25 25" fill="none" xmlns="http://www.w3.org/2000/svg">
<g opacity="0.5" clip-path="url(#clip0_363_595)">
<path d="M16.4101 4.91089H3.87012C3.4559 4.91089 3.12012 5.24668 3.12012 5.66089C3.12012 6.0751 3.4559 6.41089 3.87012 6.41089H16.4101C16.8243 6.41089 17.1601 6.0751 17.1601 5.66089C17.1601 5.24668 16.8243 4.91089 16.4101 4.91089Z" fill="#8D8D8D"/>
<path d="M16.4101 9.41089H3.87012C3.4559 9.41089 3.12012 9.74668 3.12012 10.1609C3.12012 10.5751 3.4559 10.9109 3.87012 10.9109H16.4101C16.8243 10.9109 17.1601 10.5751 17.1601 10.1609C17.1601 9.74668 16.8243 9.41089 16.4101 9.41089Z" fill="#8D8D8D"/>
<path d="M16.4101 13.9109H3.87012C3.4559 13.9109 3.12012 14.2467 3.12012 14.6609C3.12012 15.0751 3.4559 15.4109 3.87012 15.4109H16.4101C16.8243 15.4109 17.1601 15.0751 17.1601 14.6609C17.1601 14.2467 16.8243 13.9109 16.4101 13.9109Z" fill="#8D8D8D"/>
<path d="M16.4101 18.4109H3.87012C3.4559 18.4109 3.12012 18.7467 3.12012 19.1609C3.12012 19.5751 3.4559 19.9109 3.87012 19.9109H16.4101C16.8243 19.9109 17.1601 19.5751 17.1601 19.1609C17.1601 18.7467 16.8243 18.4109 16.4101 18.4109Z" fill="#8D8D8D"/>
<path d="M21.0898 4.91089H21.0298C20.6156 4.91089 20.2798 5.24668 20.2798 5.66089C20.2798 6.0751 20.6156 6.41089 21.0298 6.41089H21.0898C21.504 6.41089 21.8398 6.0751 21.8398 5.66089C21.8398 5.24668 21.504 4.91089 21.0898 4.91089Z" fill="#8D8D8D"/>
<path d="M21.0898 9.41089H21.0298C20.6156 9.41089 20.2798 9.74668 20.2798 10.1609C20.2798 10.5751 20.6156 10.9109 21.0298 10.9109H21.0898C21.504 10.9109 21.8398 10.5751 21.8398 10.1609C21.8398 9.74668 21.504 9.41089 21.0898 9.41089Z" fill="#8D8D8D"/>
<path d="M21.0898 13.9109H21.0298C20.6156 13.9109 20.2798 14.2467 20.2798 14.6609C20.2798 15.0751 20.6156 15.4109 21.0298 15.4109H21.0898C21.504 15.4109 21.8398 15.0751 21.8398 14.6609C21.8398 14.2467 21.504 13.9109 21.0898 13.9109Z" fill="#8D8D8D"/>
<path d="M21.0898 18.4109H21.0298C20.6156 18.4109 20.2798 18.7467 20.2798 19.1609C20.2798 19.5751 20.6156 19.9109 21.0298 19.9109H21.0898C21.504 19.9109 21.8398 19.5751 21.8398 19.1609C21.8398 18.7467 21.504 18.4109 21.0898 18.4109Z" fill="#8D8D8D"/>
</g>
<defs>
<clipPath id="clip0_363_595">
<rect width="24.96" height="24" fill="white" transform="translate(0 0.410889)"/>
</clipPath>
</defs>
</svg>
