<svg width="67" height="66" viewBox="0 0 67 66" fill="none" xmlns="http://www.w3.org/2000/svg">
<rect x="0.62207" width="65.8706" height="65.8706" rx="32.9353" fill="#9A8266"/>
<g clip-path="url(#clip0_195_820)">
<path d="M22.4577 36.3316H22.4272V36.4036L17.0825 49.1484L40.605 39.2838L26.9472 25.626L22.4577 36.3316ZM30.5787 42.0152L27.8615 43.1544V28.4613L30.5787 31.1785V42.0152ZM31.9372 32.5371L34.6544 35.2542V40.3061L31.9372 41.4453V32.5371ZM26.5029 43.7243L23.7858 44.8635V36.6774L26.5029 30.1976V43.7243ZM22.4272 39.9169V45.4334L19.6203 46.6106L22.4272 39.9169ZM36.013 39.7362V36.6128L38.2139 38.8137L36.013 39.7362Z" fill="#FCFDE0"/>
<path d="M34.6542 22.0664C33.1557 22.0664 31.937 23.2851 31.937 24.7836C31.937 26.2821 33.1557 27.5007 34.6542 27.5007C36.1527 27.5007 37.3713 26.2821 37.3713 24.7836C37.3713 23.2851 36.1527 22.0664 34.6542 22.0664ZM34.6542 26.1421C33.9049 26.1421 33.2956 25.5328 33.2956 24.7836C33.2956 24.0343 33.9049 23.425 34.6542 23.425C35.4034 23.425 36.0128 24.0343 36.0128 24.7836C36.0128 25.5328 35.4034 26.1421 34.6542 26.1421Z" fill="#FCFDE0"/>
<path d="M46.8817 16.6323C45.3832 16.6323 44.1646 17.851 44.1646 19.3495C44.1646 20.848 45.3832 22.0666 46.8817 22.0666C48.3802 22.0666 49.5989 20.848 49.5989 19.3495C49.5989 17.851 48.3802 16.6323 46.8817 16.6323ZM46.8817 20.7081C46.1325 20.7081 45.5231 20.0987 45.5231 19.3495C45.5231 18.6002 46.1325 17.9909 46.8817 17.9909C47.631 17.9909 48.2403 18.6002 48.2403 19.3495C48.2403 20.0987 47.631 20.7081 46.8817 20.7081Z" fill="#FCFDE0"/>
<path d="M43.4852 27.501C41.9867 27.501 40.7681 28.7196 40.7681 30.2181C40.7681 31.7167 41.9867 32.9353 43.4852 32.9353C44.9837 32.9353 46.2024 31.7167 46.2024 30.2181C46.2024 28.7196 44.9837 27.501 43.4852 27.501ZM43.4852 31.5767C42.736 31.5767 42.1266 30.9674 42.1266 30.2181C42.1266 29.4689 42.736 28.8596 43.4852 28.8596C44.2345 28.8596 44.8438 29.4689 44.8438 30.2181C44.8438 30.9674 44.2345 31.5767 43.4852 31.5767Z" fill="#FCFDE0"/>
<path d="M40.6377 36.7897L41.5982 37.7502C43.4839 35.8645 46.5536 35.8645 48.4393 37.7502L49.3999 36.7897C46.9836 34.3735 43.0533 34.3735 40.6377 36.7897Z" fill="#FCFDE0"/>
<path d="M29.0211 25.9435C30.8748 24.0897 30.8748 21.073 29.0211 19.2192L28.0605 20.1798C29.3845 21.5044 29.3845 23.6591 28.0605 24.983L29.0211 25.9435Z" fill="#FCFDE0"/>
<path d="M40.5689 25.7792C43.0809 23.2665 43.0809 19.1792 40.5689 16.6665L39.6084 17.627C41.5906 19.6099 41.5906 22.8358 39.6084 24.8187L40.5689 25.7792Z" fill="#FCFDE0"/>
<path d="M36.6921 29.5391H35.3335V30.8976H36.6921V29.5391Z" fill="#FCFDE0"/>
<path d="M47.5607 24.1045H46.2021V25.4631H47.5607V24.1045Z" fill="#FCFDE0"/>
<path d="M33.9753 17.9907H32.6167V19.3493H33.9753V17.9907Z" fill="#FCFDE0"/>
</g>
<defs>
<clipPath id="clip0_195_820">
<rect width="33.9645" height="33.9645" fill="white" transform="translate(16.3135 15.9531)"/>
</clipPath>
</defs>
</svg>
