<svg width="64" height="65" viewBox="0 0 64 65" fill="none" xmlns="http://www.w3.org/2000/svg">
<rect y="0.448242" width="64" height="64" rx="32" fill="#FFAE68"/>
<path d="M24.7884 38.7943H19.0192C18.5414 38.7943 18.1538 39.1819 18.1538 39.6597V45.4289C18.1538 45.9067 18.5414 46.2943 19.0192 46.2943H24.7884C25.2662 46.2943 25.6538 45.9067 25.6538 45.4289V39.6597C25.6538 39.1819 25.2662 38.7943 24.7884 38.7943ZM23.923 44.5635H19.8846V40.5251H23.923V44.5635Z" fill="#F1F1E7"/>
<path d="M44.9808 38.7943H39.2116C38.7338 38.7943 38.3462 39.1819 38.3462 39.6597V45.4289C38.3462 45.9067 38.7338 46.2943 39.2116 46.2943H44.9808C45.4586 46.2943 45.8462 45.9067 45.8462 45.4289V39.6597C45.8462 39.1819 45.4586 38.7943 44.9808 38.7943ZM44.1154 44.5635H40.077V40.5251H44.1154V44.5635Z" fill="#F1F1E7"/>
<path d="M34.8846 38.7943H29.1154C28.6376 38.7943 28.25 39.1819 28.25 39.6597V45.4289C28.25 45.9067 28.6376 46.2943 29.1154 46.2943H34.8846C35.3624 46.2943 35.75 45.9067 35.75 45.4289V39.6597C35.75 39.1819 35.3624 38.7943 34.8846 38.7943ZM34.0192 44.5635H29.9808V40.5251H34.0192V44.5635Z" fill="#F1F1E7"/>
<path d="M24.7884 28.6982H19.0192C18.5414 28.6982 18.1538 29.0859 18.1538 29.5636V35.3329C18.1538 35.8106 18.5414 36.1982 19.0192 36.1982H24.7884C25.2662 36.1982 25.6538 35.8106 25.6538 35.3329V29.5636C25.6538 29.0859 25.2662 28.6982 24.7884 28.6982ZM23.923 34.4675H19.8846V30.429H23.923V34.4675Z" fill="#F1F1E7"/>
<path d="M44.9808 28.6982H39.2116C38.7338 28.6982 38.3462 29.0859 38.3462 29.5636V35.3329C38.3462 35.8106 38.7338 36.1982 39.2116 36.1982H44.9808C45.4586 36.1982 45.8462 35.8106 45.8462 35.3329V29.5636C45.8462 29.0859 45.4586 28.6982 44.9808 28.6982ZM44.1154 34.4675H40.077V30.429H44.1154V34.4675Z" fill="#F1F1E7"/>
<path d="M34.8846 28.6982H29.1154C28.6376 28.6982 28.25 29.0859 28.25 29.5636V35.3329C28.25 35.8106 28.6376 36.1982 29.1154 36.1982H34.8846C35.3624 36.1982 35.75 35.8106 35.75 35.3329V29.5636C35.75 29.0859 35.3624 28.6982 34.8846 28.6982ZM34.0192 34.4675H29.9808V30.429H34.0192V34.4675Z" fill="#F1F1E7"/>
<path d="M24.7884 18.6021H19.0192C18.5414 18.6021 18.1538 18.9897 18.1538 19.4674V25.2367C18.1538 25.7144 18.5414 26.1021 19.0192 26.1021H24.7884C25.2662 26.1021 25.6538 25.7144 25.6538 25.2367V19.4674C25.6538 18.9897 25.2662 18.6021 24.7884 18.6021ZM23.923 24.3713H19.8846V20.3328H23.923V24.3713Z" fill="#F1F1E7"/>
<path d="M44.9808 18.6021H39.2116C38.7338 18.6021 38.3462 18.9897 38.3462 19.4674V25.2367C38.3462 25.7144 38.7338 26.1021 39.2116 26.1021H44.9808C45.4586 26.1021 45.8462 25.7144 45.8462 25.2367V19.4674C45.8462 18.9897 45.4586 18.6021 44.9808 18.6021ZM44.1154 24.3713H40.077V20.3328H44.1154V24.3713Z" fill="#F1F1E7"/>
<path d="M34.8846 18.6021H29.1154C28.6376 18.6021 28.25 18.9897 28.25 19.4674V25.2367C28.25 25.7144 28.6376 26.1021 29.1154 26.1021H34.8846C35.3624 26.1021 35.75 25.7144 35.75 25.2367V19.4674C35.75 18.9897 35.3624 18.6021 34.8846 18.6021ZM34.0192 24.3713H29.9808V20.3328H34.0192V24.3713Z" fill="#F1F1E7"/>
</svg>
