<svg width="14" height="14" viewBox="0 0 14 14" fill="none" xmlns="http://www.w3.org/2000/svg">
<g clip-path="url(#clip0_363_713)">
<path d="M7 12.4448C5.87512 12.4448 4.7755 12.1113 3.8402 11.4863C2.90489 10.8614 2.17591 9.97309 1.74544 8.93384C1.31496 7.89458 1.20233 6.75102 1.42179 5.64775C1.64124 4.54448 2.18292 3.53107 2.97833 2.73566C3.77374 1.94025 4.78716 1.39856 5.89043 1.17911C6.99369 0.959657 8.13726 1.07229 9.17651 1.50276C10.2158 1.93324 11.104 2.66222 11.729 3.59752C12.3539 4.53283 12.6875 5.63245 12.6875 6.75733C12.6875 8.26575 12.0883 9.71238 11.0217 10.779C9.95506 11.8456 8.50842 12.4448 7 12.4448ZM7 1.88233C6.03582 1.88233 5.09329 2.16824 4.2916 2.70391C3.48991 3.23958 2.86507 4.00096 2.49609 4.89175C2.12711 5.78254 2.03057 6.76273 2.21867 7.70839C2.40678 8.65405 2.87108 9.52269 3.55286 10.2045C4.23464 10.8863 5.10328 11.3506 6.04894 11.5387C6.9946 11.7268 7.97479 11.6302 8.86558 11.2612C9.75637 10.8923 10.5177 10.2674 11.0534 9.46573C11.5891 8.66404 11.875 7.72151 11.875 6.75733C11.875 5.4644 11.3614 4.22442 10.4471 3.31018C9.53291 2.39594 8.29293 1.88233 7 1.88233Z" fill="#8D8D8D"/>
<path d="M8.86469 9.19482L6.59375 6.92389V3.10107H7.40625V6.5867L9.4375 8.62201L8.86469 9.19482Z" fill="#8D8D8D"/>
</g>
<defs>
<clipPath id="clip0_363_713">
<rect width="13" height="13" fill="white" transform="translate(0.5 0.257324)"/>
</clipPath>
</defs>
</svg>
