<svg width="10" height="10" viewBox="0 0 10 10" fill="none" xmlns="http://www.w3.org/2000/svg">
<path d="M9.4586 0.822069C9.45174 0.726373 9.41062 0.636356 9.34278 0.568516C9.27494 0.500675 9.18492 0.459556 9.08923 0.452695C5.33147 0.231071 2.32231 1.36382 1.03689 3.48648C0.591974 4.21235 0.372572 5.05396 0.406491 5.90465C0.436041 6.68772 0.66259 7.48557 1.08614 8.26864L6.02589 3.32396C6.10244 3.26113 6.19963 3.22902 6.29854 3.23388C6.39746 3.23874 6.49103 3.28022 6.56106 3.35024C6.63108 3.42027 6.67256 3.51384 6.67742 3.61275C6.68228 3.71167 6.65017 3.80885 6.58734 3.88541L1.64266 8.82516C2.42573 9.24871 3.22358 9.47526 4.00665 9.50481H4.16917C4.96501 9.50823 5.74607 9.28994 6.42482 8.87441C8.54748 7.58899 9.68023 4.57983 9.4586 0.822069Z" fill="white"/>
<path d="M1.23863 8.53463C1.18446 8.44598 1.13521 8.35733 1.08596 8.26868L0.115735 9.23397C0.0417493 9.30867 0.000244141 9.40956 0.000244141 9.5147C0.000244141 9.61983 0.0417493 9.72072 0.115735 9.79542C0.191044 9.86824 0.291702 9.90895 0.396459 9.90895C0.501216 9.90895 0.601874 9.86824 0.677183 9.79542L1.64248 8.8252L1.37653 8.67252C1.3212 8.63699 1.27416 8.58996 1.23863 8.53463Z" fill="white"/>
</svg>
