<svg width="40" height="41" viewBox="0 0 40 41" fill="none" xmlns="http://www.w3.org/2000/svg">
<rect y="0.456543" width="40" height="40" rx="20" fill="#9DA7CF"/>
<path d="M18.1452 9.96175L21.4829 15.594H19.7393L16.8548 10.7265C16.6436 10.3701 16.7613 9.91006 17.1176 9.69889C17.474 9.48772 17.934 9.60541 18.1452 9.96175ZM10.7647 16.594C10.3424 16.594 10 16.9364 10 17.3587V19.594H30V17.3587C30 16.9364 29.6576 16.594 29.2353 16.594H10.7647ZM10.1117 21.094C10.5562 24.0489 12.2937 26.5804 14.7296 28.094H11.75C11.3358 28.094 11 28.4298 11 28.844C11 29.2582 11.3358 29.594 11.75 29.594H28.25C28.6642 29.594 29 29.2582 29 28.844C29 28.4298 28.6642 28.094 28.25 28.094H25.2704C27.7063 26.5804 29.4438 24.0489 29.8883 21.094H10.1117Z" fill="white"/>
</svg>
